<?xml version="1.0" encoding="UTF-8"?>
<svg xmlns="http://www.w3.org/2000/svg" id="Layer_1" viewBox="0 0 50 44.15">
  <defs>
    <style>.cls-1{fill:#3bbdc8;}.cls-1,.cls-2{stroke-width:0px;}.cls-2{fill:#02536a;}</style>
  </defs>
  <g id="_10">
    <path class="cls-1" d="m25.03,19.87c-1.22,0-2.2.99-2.2,2.2s.99,2.2,2.2,2.2,2.2-.99,2.2-2.2-.99-2.2-2.2-2.2Zm0,3.1c-.49,0-.89-.4-.89-.89s.4-.89.89-.89.89.4.89.89-.4.89-.89.89Z"></path>
    <path class="cls-1" d="m37.14,21.42h-6.18c-.19-1.71-1.1-3.2-2.42-4.17l3.18-5.5c.18-.31.07-.71-.24-.9-.31-.18-.71-.07-.9.24l-3.18,5.5c-.73-.32-1.53-.5-2.38-.5s-1.68.19-2.42.52l-3.19-5.52c-.18-.31-.58-.42-.9-.24-.31.18-.42.58-.24.9l3.19,5.53c-1.3.97-2.2,2.45-2.39,4.14h-6.39c-.36,0-.66.29-.66.66s.29.66.66.66h6.39c.19,1.69,1.08,3.17,2.39,4.14l-3.11,5.39c-.18.31-.07.71.24.9.1.06.22.09.33.09.23,0,.45-.12.57-.33l3.11-5.38c.74.33,1.56.52,2.42.52s1.65-.18,2.38-.5l3.1,5.36c.12.21.34.33.57.33.11,0,.22-.03.33-.09.31-.18.42-.58.24-.9l-3.1-5.36c1.32-.97,2.24-2.46,2.42-4.17h6.18c.36,0,.66-.29.66-.66s-.29-.66-.66-.66Zm-12.11,5.32c-2.57,0-4.67-2.09-4.67-4.67s2.09-4.67,4.67-4.67,4.67,2.09,4.67,4.67-2.09,4.67-4.67,4.67Z"></path>
    <path class="cls-2" d="m25.03,8.97c-7.23,0-13.1,5.88-13.1,13.1s5.88,13.1,13.1,13.1,13.1-5.88,13.1-13.1-5.88-13.1-13.1-13.1Zm0,24.89c-6.5,0-11.79-5.29-11.79-11.79s5.29-11.79,11.79-11.79,11.79,5.29,11.79,11.79-5.29,11.79-11.79,11.79Z"></path>
    <path class="cls-2" d="m46.97,18.93c-.57-.02-1.14.11-1.64.39-.67.37-1.46.58-2.3.63-.6-5.07-3.29-9.51-7.18-12.41.43-.67,1.01-1.25,1.76-1.72.43-.27.79-.64,1.04-1.08.43-.75.54-1.65.29-2.48-.25-.84-.83-1.52-1.62-1.91-1.43-.71-3.21-.21-4.06,1.14-.3.48-.47,1.04-.48,1.61-.01.77-.23,1.56-.61,2.32-2.19-.94-4.61-1.47-7.14-1.47s-4.98.53-7.19,1.49c-.37-.71-.58-1.51-.62-2.4-.02-.5-.17-1-.42-1.44-.43-.75-1.16-1.29-2.01-1.49-.86-.2-1.73-.04-2.46.44-1.33.88-1.79,2.68-1.04,4.09.27.51.67.93,1.15,1.23.67.4,1.25,1,1.72,1.72-3.88,2.91-6.55,7.34-7.15,12.39-.81-.03-1.61-.25-2.41-.67-1.21-.63-2.81-.37-3.75.63-.6.64-.9,1.48-.85,2.35.1,1.59,1.42,2.89,3.02,2.95.04,0,.08,0,.12,0,.53,0,1.05-.13,1.52-.39.68-.38,1.49-.59,2.35-.63.59,5.05,3.27,9.48,7.15,12.39-.43.68-1.02,1.27-1.78,1.75-.43.27-.79.64-1.04,1.08-.43.75-.54,1.65-.29,2.48.25.84.83,1.52,1.62,1.91.44.22.91.32,1.38.32,1.06,0,2.09-.53,2.68-1.46.31-.49.47-1.04.48-1.61.02-.77.24-1.58.62-2.34,2.2.95,4.63,1.49,7.18,1.49s4.95-.52,7.14-1.47c.36.71.57,1.5.61,2.38.02.5.17,1,.42,1.44.43.75,1.16,1.29,2.01,1.49.24.06.49.09.73.09.61,0,1.21-.18,1.74-.53,1.33-.88,1.79-2.68,1.04-4.09-.27-.51-.67-.93-1.15-1.23-.66-.4-1.24-.98-1.7-1.69,3.9-2.91,6.59-7.35,7.18-12.42.79.04,1.58.26,2.36.66.45.23.95.36,1.46.36.87,0,1.7-.36,2.29-.99.6-.64.9-1.48.85-2.36-.1-1.59-1.43-2.88-3.02-2.95Zm-12.88-15.82c0-.33.1-.66.28-.94.5-.79,1.54-1.08,2.37-.67.46.23.8.63.94,1.12.15.49.09,1.01-.17,1.45-.15.26-.35.47-.61.63-.9.57-1.61,1.27-2.14,2.09-.46-.3-.94-.57-1.43-.82.46-.92.72-1.9.74-2.85Zm-20.97,1.61c-.28-.17-.52-.42-.67-.72-.43-.82-.17-1.87.61-2.38.43-.28.94-.38,1.44-.26.5.12.92.43,1.17.87.15.26.23.54.24.84.04,1.07.3,2.04.75,2.91-.49.25-.96.53-1.42.83-.57-.87-1.29-1.59-2.12-2.09ZM4.03,23.68c-.29.16-.61.24-.96.23-.93-.04-1.7-.79-1.76-1.72-.03-.51.14-1,.49-1.38.56-.59,1.48-.74,2.19-.37.95.5,1.93.76,2.91.81-.01.27-.02.54-.02.82s0,.55.02.82c-1.04.06-2.03.32-2.88.79Zm11.88,17.35c0,.33-.1.66-.28.94-.5.79-1.54,1.08-2.37.67-.46-.23-.8-.63-.95-1.12-.15-.49-.09-1.01.17-1.45.15-.26.35-.47.61-.63.9-.57,1.62-1.29,2.15-2.11.46.3.93.57,1.42.83-.47.93-.73,1.91-.75,2.87Zm20.97-1.61c.28.17.52.42.67.72.43.82.17,1.87-.61,2.38-.43.29-.94.38-1.44.26s-.91-.43-1.17-.87c-.15-.26-.23-.54-.25-.84-.04-1.06-.3-2.03-.74-2.89.49-.25.96-.53,1.43-.82.57.86,1.28,1.57,2.1,2.07Zm-11.85-.52c-9.28,0-16.83-7.55-16.83-16.83S15.75,5.24,25.03,5.24s16.83,7.55,16.83,16.83-7.55,16.83-16.83,16.83Zm23.16-15.57c-.56.59-1.48.74-2.19.37-.93-.49-1.89-.75-2.86-.81.01-.27.02-.55.02-.82s0-.55-.02-.83c1.02-.07,1.99-.33,2.82-.78.29-.16.61-.23.96-.23.93.04,1.7.79,1.76,1.72.03.51-.14,1-.49,1.38Z"></path>
  </g>
</svg>
