<?xml version="1.0" encoding="UTF-8"?>
<svg xmlns="http://www.w3.org/2000/svg" id="Layer_1" viewBox="0 0 50 40.52">
  <defs>
    <style>.cls-1{fill:#3bbdc8;}.cls-1,.cls-2{stroke-width:0px;}.cls-2{fill:#02536a;}</style>
  </defs>
  <g id="diploma-02">
    <path class="cls-2" d="m49.93,11.67c-.14-.29-.46-.45-.78-.38-.04.01-3.98.96-6.03-.62l3.58-2.61c.99-.72,1.33-2.05.81-3.16C46.37,2.53,44.55.08,39.57,0c-.82,0-1.61.25-2.27.74L1.23,27.02h0s0,0,0,0c-.69.45-1.11,1.15-1.21,2.07-.37,3.23,3.52,8.8,6.08,10.33,1.36.82,2.56,1.09,3.55,1.09,1.79,0,2.91-.89,3.13-1.08l13.95-10.17c.05-.65.08-1.25.1-1.77l-14.88,10.85s-.05.03-.06.05c-.08.07-1.97,1.73-5.09-.14-2.17-1.3-5.74-6.34-5.42-9.01.05-.52.27-.89.66-1.13h0s0,0,0,0c.12-.08.26-.14.43-.19,2.17-.69,4.47.98,5.69,2.81.89,1.34,1.15,2.66.61,3.28-.21.25-.38.27-.52.26-.81-.05-2.07-1.48-2.7-2.48l-1.15.73c.19.31,1.94,2.98,3.75,3.11.4.03.96-.05,1.47-.56h0s0,0,0,0h.02s12.72-9.29,12.72-9.29c-.3-.27-.58-.59-.83-.93-.03-.03-.05-.07-.07-.1l-11.08,8.08c-.06-.88-.43-1.87-1.09-2.87-1.11-1.65-2.96-3.18-5-3.51h0S38.1,1.84,38.1,1.84c.42-.31.95-.48,1.45-.47,4.43.07,5.79,2.16,6.72,4.12.25.53.09,1.15-.37,1.48l-14.2,10.35s.05.06.08.1c.25.34.46.7.63,1.08l9.58-6.99c1.32,1.21,3.23,1.49,4.81,1.45l-14.11,10.29,2.5-.13,14.53-10.6c.26-.19.35-.55.21-.84Z"></path>
    <path class="cls-1" d="m42.1,22.52c-.12-.27-.38-.43-.67-.42l-7.89.41c.09-.46.14-.91.14-1.37,0-1.47-.46-2.91-1.35-4.13-1.11-1.51-2.74-2.5-4.59-2.79-1.14-.18-2.29-.08-3.36.29l-2.13-2.82-1.1.8,1.96,2.6c-.2.12-.4.25-.59.39-.18.13-.35.27-.51.41l-1.96-2.59-1.1.8,2.12,2.8c-.69.91-1.16,1.99-1.34,3.15-.29,1.86.15,3.71,1.26,5.22,1.22,1.67,3.08,2.71,5.14,2.86-.14,2.78-.57,6.54-1.63,8.13-.16.25-.15.57.03.81.13.16.33.26.53.26.08,0,.16-.01.24-.05,2.36-.88,3.49-1.92,4.03-2.62l3.39,2.27c.25.17.57.16.81-.03.23-.18.31-.5.21-.78l-3.38-9.03c.15-.09.29-.18.44-.29.05-.03.09-.07.14-.11,0,0,0,0,0,0l9.23,3.73c.26.11.56.04.76-.17.19-.2.23-.51.1-.76l-1.85-3.71,2.76-2.5c.21-.19.28-.5.17-.77Zm-10.38,12.1l-2.23-1.49c-.17-.12-.39-.14-.59-.08-.19.06-.35.22-.43.41,0,.01-.37.89-2.05,1.82.7-2.16.96-5.1,1.06-7.17h0c.56-.06,1.11-.2,1.64-.4,0,0,0,0,0,0l2.59,6.92Zm-.16-10.64c-.24.42-.54.81-.89,1.15h0c-.21.21-.44.4-.68.58-.41.3-.86.55-1.34.72h0s0,0,0,0c-.35.14-.73.24-1.11.3h0s0,0,0,0c-.38.06-.76.08-1.14.06-.07,0-.15,0-.22-.02,0,0,0,0,0,0-1.63-.13-3.11-.96-4.08-2.29-.89-1.22-1.25-2.71-1.02-4.2.23-1.49,1.04-2.8,2.25-3.69.98-.71,2.14-1.09,3.32-1.09.29,0,.59.03.88.07,1.49.23,2.8,1.04,3.69,2.25,1.01,1.38,1.33,3.11.9,4.77h0s0,.03-.01.05c-.13.48-.31.93-.56,1.34h0s0,0,0,0Zm6.31,1.15c-.23.2-.29.54-.15.81l1.28,2.55-6.97-2.82c.46-.53.82-1.12,1.09-1.77,0,0,0,0,0,0l6.48-.33-1.73,1.56Z"></path>
  </g>
</svg>
