<?xml version="1.0" encoding="UTF-8"?>
<svg xmlns="http://www.w3.org/2000/svg" id="Layer_1" viewBox="0 0 15.69 50">
  <defs>
    <style>.cls-1{fill:#3bbdc8;stroke-width:0px;}</style>
  </defs>
  <g id="Line-Arrow-14">
    <path id="Shape" class="cls-1" d="m10.47,47.58c.79-1.22,1.52-2.38,2.29-3.52.26-.39.49-.97,1.15-.68.41.18.35.57-.11,1.3-.89,1.4-1.76,2.81-2.64,4.21-.06.1-.11.2-.18.3-.72,1.04-1.15,1.07-1.93.12-.9-1.1-1.79-2.22-2.67-3.34-.28-.35-.7-.8-.19-1.18.51-.38.83.16,1.12.49.52.59,1.01,1.22,1.69,2.05,0-.64.03-.97,0-1.3-.22-2.78.23-5.45,1.21-8.06.68-1.8,1.38-3.61,1.93-5.45.53-1.81.97-3.65,1.31-5.51.28-1.49.22-3.01-.4-4.43-.24-.55-.61-1.04-1-1.7-.31.59-.53.99-.74,1.39-1.29,2.39-2.94,4.44-5.44,5.65-.69.34-1.43.56-2.19.66-2.25.26-3.81-1.27-3.66-3.53.11-1.6.79-2.98,1.88-4.14,1.94-2.07,4.26-3.3,7.2-2.92.76.1,1.51.29,2.31.45.83-1.56,1.22-5.27.68-7.46-.6.52-1.12,1.08-1.73,1.48-.73.48-1.51.96-2.33,1.22-1.49.48-2.88-.18-3.57-1.6-.77-1.59-.9-3.26-.3-4.95.82-2.27,3.15-3.31,5.35-2.32.75.34,1.39.94,2.02,1.5.39.35.66.84,1.05,1.36.17-.23.38-.4.46-.62.46-1.22.95-2.44,1.32-3.69.24-.81.33-1.65.04-2.51-.07-.22.05-.65.23-.78.36-.25.71.02.81.37.16.58.3,1.2.28,1.8-.05,1.56-.51,3.04-1.13,4.46-.32.74-.75,1.43-1.08,2.17-.14.33-.26.74-.19,1.07.62,2.91.35,5.76-.49,8.57-.21.69-.19,1.17.34,1.75,1.11,1.21,1.71,2.81,1.67,4.45-.04,1.61-.15,3.25-.53,4.81-.54,2.24-1.34,4.42-2.06,6.62-.35,1.06-.74,2.11-1.12,3.16-.94,2.56-.96,5.21-.78,7.88,0,.1.08.19.16.36Zm.55-27.75c-.92-.24-1.64-.52-2.39-.6-2.89-.3-6.16,1.89-7.1,4.71-.33.98-.53,2.01.28,2.83.86.87,1.93.64,2.92.24,3.19-1.3,4.88-3.95,6.29-7.18Zm.17-11.74c-.54-1.02-1.3-1.82-2.42-2.19-1.48-.49-2.81.11-3.38,1.56-.5,1.23-.47,2.61.1,3.82.57,1.27,1.45,1.58,2.73,1.01,1.08-.48,1.94-1.23,2.72-2.1.85-.96.86-1,.25-2.1h0Z"></path>
  </g>
</svg>
