<?xml version="1.0" encoding="UTF-8"?>
<svg xmlns="http://www.w3.org/2000/svg" id="Layer_1" viewBox="0 0 18.81 50">
  <defs>
    <style>.cls-1{fill:#3bbdc8;stroke-width:0px;}</style>
  </defs>
  <g id="Line-Arrow-21">
    <path id="Shape" class="cls-1" d="m4.43,47.03c-.02-.74-.04-1.48-.06-2.22-.02-.25,0-.49.04-.74.04-.14.21-.34.33-.35.18,0,.46.1.52.23.12.29.18.6.19.92.06,1.35.09,2.69.14,4.04.03.87-.42,1.28-1.26.97-1.33-.49-2.62-1.08-3.93-1.63-.06-.03-.16-.05-.18-.1-.09-.21-.28-.47-.22-.62.06-.16.4-.31.58-.28.34.05.67.22.99.36.58.24,1.15.49,1.91.82-.33-.72-.57-1.22-.79-1.72C.09,40.7-.48,34.42.56,27.98c.75-4.64,2.34-8.97,5.14-12.8,1.18-1.61,2.59-3,4.13-4.23.02-.1.06-.18.04-.23-.97-2.07-.94-4.19-.26-6.32.36-1.15.74-2.29,1.13-3.43.09-.3.25-.58.46-.82.14-.13.49-.19.66-.11.15.08.23.4.24.62,0,.2-.15.39-.21.59-.46,1.42-.96,2.82-1.35,4.26-.42,1.54-.37,3.08.42,4.66.37-.17.71-.33,1.04-.5,1.36-.69,2.84-1.14,4.36-1.3,1.79-.18,2.83,1.09,2.32,2.82-.41,1.41-1.74,2.42-3.36,2.51-1.48.08-2.79-.4-3.96-1.28-.2-.15-.37-.32-.62-.53-.23.14-.47.27-.69.43-1.96,1.52-3.47,3.43-4.72,5.55C.47,26.16-.09,37.82,3.94,46.55c.09.19.19.37.29.55l.2-.07ZM11.64,11.26c.78.42,1.31.77,1.89,1,.95.37,1.93.46,2.88,0,.79-.39,1.26-1.02,1.29-1.92.01-.55-.24-.86-.74-.82-1.82.12-3.52.63-5.31,1.75Z"></path>
  </g>
</svg>
