<?xml version="1.0" encoding="UTF-8"?>
<svg xmlns="http://www.w3.org/2000/svg" xmlns:xlink="http://www.w3.org/1999/xlink" id="Layer_1" viewBox="0 0 100 63.62">
  <defs>
    <style>.cls-1{mask:url(#mask);}.cls-2{fill:url(#linear-gradient);}.cls-2,.cls-3,.cls-4,.cls-5,.cls-6,.cls-7,.cls-8{stroke-width:0px;}.cls-3{fill:url(#linear-gradient-4);}.cls-4{fill:url(#linear-gradient-2);}.cls-5{fill:url(#linear-gradient-3);}.cls-6{fill:url(#linear-gradient-5);}.cls-7{fill:#03536a;}.cls-8{fill:#fff;}</style>
    <mask id="mask" x="28.75" y="0" width="42.71" height="44.7" maskUnits="userSpaceOnUse">
      <path class="cls-8" d="m67.56,39.15c-.27.05-1.24.11-1.46.11-.32,0-.54-.06-.65-.59-.16-.7-.22-2.64-.22-5.49v-4.7c-.07.06-.14.12-.21.18-.69.59-1.41,1.2-2.22,1.73h0s-.01.01-.01.01c-.5.31-1,.59-1.48.83v10.29c2.32-.43,4.58-1.08,6.36-1.67.22-.27.16-.54-.11-.7Zm-11.31-6.5v8.12c-1.08.37-2.59.54-3.72.54-8.51,0-11.79-7.05-11.79-17.93,0-7.49,2.48-13.57,6.19-16.59-5.39,1.78-11.15,6.62-11.15,17.29s4.8,18.58,15.67,18.58c2.16,0,5.44-.38,8.72-.97v-9.94c-1.36.56-2.68.86-3.93.91Zm0-.92h0s.06,0,.09,0c-.03,0-.06,0-.09,0Zm7.65-28.12c-.16-.22-.54-.22-.7,0l-1.13,1.83h-.32c-2.26-1.24-6.25-1.99-9.43-1.99-11.9,0-22.03,7.86-22.03,20.52,0,8.56,3.55,14.65,11.15,17.29-4.15-2.85-6.84-8.18-6.84-17.18,0-15.83,11.79-19.55,17.99-19.33,4.52.05,6.89,2.75,11.47,10.88.27.27.65.16.76-.22l-.92-11.79Z"></path>
      <path class="cls-8" d="m56.35,30.11h-.05s-.03.02-.05.02c.03,0,.06,0,.09-.02Z"></path>
      <path class="cls-8" d="m56.51,30.08h-.02s-.02,0-.02,0c0,0,.02,0,.02,0,0,0,.02,0,.02,0Z"></path>
      <path class="cls-8" d="m58.82,26.93c-.11.06-.22.11-.33.17h.01c.1-.06.21-.11.31-.17Z"></path>
      <path class="cls-8" d="m66.49,25.38c-.08.01-.16.04-.24.06.03,0,.06-.02.09-.02l.16-.03Z"></path>
      <path class="cls-8" d="m65.64,25.6c.1-.03.19-.06.29-.09-.02,0-.04.01-.06.02-.08.02-.15.04-.23.07Z"></path>
      <path class="cls-8" d="m66.06,25.48s-.09.02-.13.03c.02,0,.04-.01.06-.02.02,0,.05-.01.07-.02Z"></path>
      <path class="cls-8" d="m56.26,30.13s0,0,0,0c-.05.01-.11.02-.16.03.07-.01.14-.02.22-.04h.05s-.06,0-.09,0Zm-.17.04c-.2.03-.4.06-.61.08.2-.02.41-.04.61-.08Zm-1.97.07c.25.03.5.04.75.04.21,0,.41,0,.61-.03-.45.04-.91.03-1.36-.01Zm-.75-.11c-.33-.07-.65-.15-.97-.26.32.11.65.19.97.26Zm-1.21-.34c-.24-.09-.47-.19-.69-.29.22.11.46.21.69.29Zm-.92-.41c-.22-.12-.44-.24-.64-.38.21.14.42.26.64.38Zm14.4-3.77c.08-.02.15-.05.23-.07.02,0,.04-.01.06-.02-.1.03-.2.05-.29.09Z"></path>
      <path class="cls-8" d="m69.71,25.71c-.69-.31-1.39-.44-2.08-.44-.38,0-.76.04-1.14.11-.05,0-.1.02-.16.03-.09.02-.18.04-.27.06-.02,0-.05,0-.07.02-.02,0-.04.01-.06.02-.1.03-.2.05-.29.09-.02,0-.03,0-.04.02h0c-.13.04-.26.09-.39.14-.03,0-.05.02-.08.03-.07.02-.14.06-.2.08-.04.02-.07.03-.11.05-.12.05-.25.11-.37.17,0,0,0,0,0,0-.29.14-.57.3-.85.46-.63.36-1.26.77-1.91,1.17-.12.07-.24.15-.36.22-.18.11-.37.23-.56.34-.19.11-.38.22-.57.33,0,0-.01,0-.02.01-.25.14-.5.27-.76.41-.03.02-.07.04-.1.05-.45.22-.91.43-1.37.6-.09.03-.18.07-.28.1-.06.02-.13.04-.19.06-.31.1-.63.18-.95.24,0,0-.02,0-.02,0,0,0-.02,0-.02,0-.04,0-.07.02-.11.02-.03,0-.06.01-.09.02,0,0,0,0,0,0-.05.01-.11.02-.16.03-.2.03-.4.06-.61.08h0c-.45.04-.91.03-1.36-.01-.25-.02-.5-.06-.75-.11-.33-.07-.65-.15-.97-.26-.08-.02-.16-.05-.24-.08-.24-.09-.47-.19-.69-.29-.08-.04-.15-.07-.22-.11-.22-.12-.44-.24-.64-.38-.41-.27-.8-.58-1.14-.93-.11-.12-.22-.24-.33-.36-.05-.06-.1-.13-.15-.19-.15-.19-.28-.39-.41-.6-.08-.14-.16-.28-.22-.43.96.74,1.95,1.27,2.96,1.58.08.03.16.05.24.07.71.2,1.43.29,2.14.29.4,0,.8-.03,1.2-.09.2-.03.4-.06.6-.1.25-.06.5-.12.76-.19.15-.04.3-.09.45-.14.05-.02.1-.04.15-.06.08-.03.15-.06.23-.09.07-.03.14-.06.21-.09.03-.01.05-.02.08-.03.19-.08.37-.16.56-.25.19-.09.37-.19.56-.29.11-.06.22-.11.33-.17.14-.07.28-.15.42-.23.25-.13.49-.27.74-.41.47-.26.94-.53,1.43-.77.25-.13.5-.25.76-.37.53-.25,1.09-.47,1.66-.64.67-.21,1.42-.33,2.16-.33.92,0,1.84.18,2.61.61.1.05.19.1.27.16.17.11.33.24.48.37.06.06.13.12.18.18.06.06.12.13.17.2Z"></path>
      <path class="cls-8" d="m60.1,25.14c-.1.04-.21.08-.31.12-1.15.44-2.41.89-3.71,1.21-2.09.53-4.26.71-6.18-.09,1.27.81,2.63,1.23,4.04,1.23.83,0,1.69-.14,2.55-.43.6-.2,1.2-.46,1.8-.79h.02s.01-.02.01-.02c1.11-.55,2.16-1.28,3.34-1.66,0,0-.47.01-1.56.42Z"></path>
      <path class="cls-8" d="m52.52,30.86s-.04,0-.04,0c0,0,.01,0,.03,0t0,0Z"></path>
      <path class="cls-8" d="m52.55,30.87h-.02s0,0,0,0c.02,0,.02,0,.02,0Z"></path>
      <path class="cls-8" d="m56.33,31.72s-.06,0-.09,0c-.1,0-.2,0-.3,0,.1,0,.2,0,.3,0,.03,0,.06,0,.09,0Z"></path>
      <path class="cls-8" d="m56.25,31.72c-.1,0-.2,0-.3,0,.1,0,.2,0,.3,0,.03,0,.06,0,.09,0-.03,0-.06,0-.09,0Zm-3.72-.86s0,0,0,0h.02s0,0-.02,0Zm-.01,0s-.03,0-.03,0c0,0,.02,0,.04,0t0,0Zm.01,0h0"></path>
      <path class="cls-8" d="m52.49,30.86s.01,0,.03,0t0,0s-.04,0-.04,0Zm12.75-3.58c-.97.79-1.88,1.63-2.93,2.33-.12.07-.24.15-.37.22-.21.12-.42.24-.63.36-.37.2-.75.39-1.13.56-1.1.49-2.25.83-3.4.95-.09,0-.18.02-.26.02-.06,0-.12,0-.18,0-.03,0-.06,0-.09,0-.1,0-.2,0-.3,0-1.16,0-2.31-.26-3.41-.87t0,0s.02,0,.02,0h-.02c.16.04.33.09.49.12.6.14,1.22.21,1.84.21.47,0,.93-.04,1.38-.12.14-.02.29-.06.43-.09,1.24-.23,2.41-.73,3.5-1.32.38-.21.76-.42,1.13-.65.41-.25.81-.49,1.2-.74.82-.51,1.59-1,2.34-1.37.19-.09.37-.18.56-.25.38-.16.76-.27,1.12-.35-.45.3-.88.63-1.29.96Z"></path>
      <path class="cls-8" d="m66.53,26.31c-.45.3-.88.63-1.29.96-.97.79-1.88,1.63-2.93,2.33-.12.07-.24.15-.37.22-.21.12-.42.24-.63.36-.37.2-.75.39-1.13.56-1.1.49-2.25.83-3.4.95-.09,0-.18.02-.26.02-.06,0-.12,0-.18,0-.03,0-.06,0-.09,0-.1,0-.2,0-.3,0-1.16,0-2.31-.26-3.41-.87.16.04.33.09.49.12.6.14,1.22.21,1.84.21.47,0,.93-.04,1.38-.12.14-.02.29-.06.43-.09,1.24-.23,2.41-.73,3.5-1.32.38-.21.76-.42,1.13-.65.41-.25.81-.49,1.2-.74.82-.51,1.59-1,2.34-1.37.19-.09.37-.18.56-.25.38-.16.76-.27,1.12-.35Z"></path>
    </mask>
    <linearGradient id="linear-gradient" x1="-2579.58" y1="-6317.55" x2="-2535.88" y2="-6273.85" gradientTransform="translate(2607.84 6318.05)" gradientUnits="userSpaceOnUse">
      <stop offset="0" stop-color="#6dcad2"></stop>
      <stop offset=".07" stop-color="#67c8d1"></stop>
      <stop offset=".16" stop-color="#56c5ce"></stop>
      <stop offset=".27" stop-color="#3ac0ca"></stop>
      <stop offset=".27" stop-color="#39c0ca"></stop>
      <stop offset=".32" stop-color="#3bbbc5"></stop>
      <stop offset=".52" stop-color="#3cbac4"></stop>
      <stop offset=".57" stop-color="#47bdc7"></stop>
      <stop offset=".67" stop-color="#64c7cf"></stop>
      <stop offset=".67" stop-color="#65c8d0"></stop>
      <stop offset=".74" stop-color="#4dafb8"></stop>
      <stop offset=".84" stop-color="#3495a0"></stop>
      <stop offset=".93" stop-color="#258591"></stop>
      <stop offset="1" stop-color="#20808c"></stop>
    </linearGradient>
    <linearGradient id="linear-gradient-2" x1=".69" y1="61.3" x2="27.98" y2="61.3" gradientUnits="userSpaceOnUse">
      <stop offset="0" stop-color="#6dcad2"></stop>
      <stop offset=".07" stop-color="#67c8d1"></stop>
      <stop offset=".16" stop-color="#56c5ce"></stop>
      <stop offset=".27" stop-color="#3ac0ca"></stop>
      <stop offset=".27" stop-color="#39c0ca"></stop>
      <stop offset=".36" stop-color="#3bbbc5"></stop>
      <stop offset=".69" stop-color="#3cbac4"></stop>
      <stop offset=".8" stop-color="#47bdc7"></stop>
      <stop offset="1" stop-color="#64c7cf"></stop>
      <stop offset="1" stop-color="#65c8d0"></stop>
    </linearGradient>
    <linearGradient id="linear-gradient-3" y1="60.16" x2="28.24" y2="60.16" xlink:href="#linear-gradient-2"></linearGradient>
    <linearGradient id="linear-gradient-4" x1="71.76" x2="99.04" xlink:href="#linear-gradient-2"></linearGradient>
    <linearGradient id="linear-gradient-5" x1="71.76" y1="60.16" x2="99.31" y2="60.16" xlink:href="#linear-gradient-2"></linearGradient>
  </defs>
  <g class="cls-1">
    <rect class="cls-2" x="28.75" width="42.71" height="44.7" transform="translate(100.21 44.7) rotate(180)"></rect>
  </g>
  <path class="cls-7" d="m34.2,60.15l-.39,1.84h-.27c-.1-.33-.27-.64-.49-.95-.23-.31-.48-.56-.76-.76-.19.29-.4.56-.63.79-.23.23-.48.43-.74.6-.26.17-.53.29-.81.39-.28.09-.56.14-.83.14-.07,0-.15,0-.24-.02l.13-.31c.15.02.26.02.33.02.76,0,1.43-.3,2.02-.89.12-.12.25-.26.37-.42.13-.16.26-.34.39-.56.3-.47.56-.91.77-1.33l.39-.75c.31-.59.54-.99.71-1.2.17-.21.33-.31.49-.31.05,0,.1.01.14.03s.07.05.09.1c.02.04.03.09.03.14,0,.04,0,.1-.02.17-.01.1-.02.15-.02.16l-.63,2.98h.29l-.03.14h-.29Zm-.39,0h-1.45.02c.25.2.46.39.63.59.18.2.35.44.52.71l.28-1.3Zm-1.33-.14h1.36l.59-2.82c.02-.09.03-.14.03-.14.02-.06.02-.1.02-.15,0-.07-.03-.1-.09-.1-.07,0-.16.08-.27.24-.1.16-.29.48-.55.97-.04.07-.12.23-.24.45-.1.18-.15.28-.16.3l-.4.72c-.17.3-.27.48-.3.53Z"></path>
  <path class="cls-7" d="m35.59,59.78l-.31,1.38c-.03.15-.05.26-.05.32,0,.1.02.18.07.24s.11.09.19.09.14-.02.21-.06c.06-.04.16-.13.28-.27l.05-.05.06.06c-.16.2-.3.34-.41.42s-.22.12-.32.12c-.13,0-.24-.04-.32-.13-.08-.09-.12-.2-.12-.34,0-.1.02-.26.06-.46l.27-1.33h-.4l.03-.14h.4l.23-1.12.4-.16-.29,1.28h.67l-.03.14h-.67Z"></path>
  <path class="cls-7" d="m37.11,59.78l-.31,1.38c-.03.15-.05.26-.05.32,0,.1.02.18.07.24s.11.09.19.09.14-.02.21-.06c.06-.04.16-.13.28-.27l.05-.05.06.06c-.16.2-.3.34-.41.42s-.22.12-.32.12c-.13,0-.24-.04-.32-.13-.08-.09-.12-.2-.12-.34,0-.1.02-.26.06-.46l.27-1.33h-.4l.03-.14h.4l.23-1.12.4-.16-.29,1.28h.67l-.03.14h-.67Z"></path>
  <path class="cls-7" d="m37.84,61.19c0-.25.07-.5.2-.74.13-.25.31-.45.52-.6s.43-.23.65-.23c.23,0,.42.08.56.23.14.15.21.35.21.59,0,.27-.07.52-.2.77-.13.25-.3.45-.52.61-.21.16-.43.24-.65.24-.23,0-.42-.08-.57-.24-.14-.16-.22-.37-.22-.63Zm1.77-.91c0-.17-.04-.3-.12-.41s-.19-.16-.31-.16c-.12,0-.23.04-.33.11s-.2.18-.29.33c-.1.17-.18.36-.25.58-.06.22-.1.42-.1.59,0,.2.04.36.12.47.08.11.19.17.34.17.24,0,.45-.17.63-.5.09-.17.17-.36.22-.58s.08-.41.08-.6Z"></path>
  <path class="cls-7" d="m40.33,60.81c.24-.29.4-.56.48-.8-.22-.12-.34-.3-.34-.53,0-.11.03-.2.08-.27s.12-.1.2-.1.15.04.2.11.08.17.08.3c0,.09-.02.18-.05.29.07.02.14.03.2.03.17,0,.31-.05.42-.15h.2l-.03.06c-.2.36-.36.72-.49,1.08-.13.35-.19.62-.19.79,0,.06.02.12.05.16s.07.06.12.06c.11,0,.3-.12.55-.36l.07.07c-.08.09-.2.19-.36.32-.15.12-.28.17-.41.17-.11,0-.19-.04-.25-.11-.06-.07-.09-.17-.09-.29,0-.21.08-.47.24-.79.06-.12.13-.25.22-.41.09-.15.21-.33.34-.54l.04-.06c-.09.08-.18.14-.26.18-.08.03-.18.05-.29.05-.05,0-.1,0-.16-.02-.09.27-.25.55-.5.84l-.07-.07Zm.57-1.05c.01-.07.02-.13.02-.17,0-.1-.02-.17-.05-.23s-.07-.08-.12-.08c-.03,0-.05.01-.07.04-.02.03-.03.06-.03.1,0,.13.09.25.26.35Z"></path>
  <path class="cls-7" d="m42.2,62.03l.44-2.29.39-.17-.36,1.52c.23-.48.46-.85.68-1.1.23-.25.44-.38.65-.38.1,0,.18.03.25.1.06.07.1.16.1.27,0,.06-.02.15-.05.27l-.04.17-.12.51-.04.16c-.04.17-.06.29-.06.38s.02.16.05.21c.03.05.07.08.12.08.09,0,.22-.1.41-.31l.07.06-.04.05c-.16.19-.27.31-.35.37-.07.06-.14.1-.21.1-.09,0-.16-.04-.22-.13-.06-.09-.09-.2-.09-.33,0-.09.02-.22.05-.39l.16-.88c.02-.14.03-.23.03-.29,0-.06-.02-.1-.05-.13-.03-.03-.07-.05-.12-.05-.19,0-.43.2-.7.61-.14.2-.25.39-.34.58s-.19.46-.3.8l-.04.11-.28.09Z"></path>
  <path class="cls-7" d="m46.61,61.35l.07.06c-.17.23-.34.39-.5.49s-.34.15-.53.15c-.22,0-.4-.07-.54-.22-.14-.15-.2-.35-.2-.59s.07-.5.2-.76.3-.47.49-.63c.2-.17.39-.25.59-.25.11,0,.21.03.28.1.07.07.11.15.11.26,0,.21-.12.43-.35.64-.23.21-.55.39-.95.54,0,.02,0,.05,0,.07,0,.19.05.35.16.47.1.12.24.18.41.18.13,0,.26-.04.38-.12.12-.08.25-.21.39-.38Zm-1.33-.31c.3-.13.53-.28.69-.44.11-.11.19-.23.26-.36s.1-.24.1-.34c0-.13-.06-.19-.18-.19-.18,0-.36.14-.54.42s-.29.59-.33.91Z"></path>
  <path class="cls-7" d="m46.6,63.46l.2-.27c.16.17.34.26.54.26.21,0,.38-.08.51-.25.13-.17.24-.44.32-.83l.19-.86c-.3.36-.58.53-.82.53-.14,0-.26-.04-.34-.13-.08-.09-.12-.21-.12-.36,0-.1.01-.21.04-.33l.28-1.49.4-.17-.4,1.67c-.03.14-.05.24-.05.3,0,.09.03.17.08.23.06.06.13.09.23.09.1,0,.21-.04.34-.13.12-.09.26-.22.41-.4l.36-1.58.39-.17-.6,2.44c-.07.29-.14.52-.21.69-.06.17-.14.3-.23.41-.27.35-.6.52-.99.52-.23,0-.4-.06-.53-.17Z"></path>
  <path class="cls-7" d="m49.22,61.72l.23-.27c.12.29.31.43.58.43.14,0,.26-.04.35-.13s.15-.19.15-.31c0-.09-.02-.16-.07-.22s-.16-.16-.34-.31c-.16-.13-.27-.24-.33-.31s-.08-.16-.08-.26c0-.13.04-.25.11-.36.08-.11.18-.2.3-.27s.26-.1.4-.1c.12,0,.23.03.31.09s.13.14.13.24c0,.13-.05.21-.16.26-.02-.13-.07-.23-.15-.3-.08-.07-.19-.11-.31-.11-.11,0-.21.04-.3.11-.08.07-.13.16-.13.25,0,.12.07.23.22.34l.24.19c.23.19.35.37.35.57,0,.14-.04.28-.12.4-.08.13-.19.23-.33.3-.14.07-.29.11-.44.11-.25,0-.45-.11-.62-.34Z"></path>
  <path class="cls-7" d="m55.06,59.54l-.39,1.52c-.04.17-.06.3-.06.39,0,.08.02.15.05.22.04.06.08.09.13.09.08,0,.21-.1.4-.29l.06.06-.05.05c-.15.17-.26.29-.34.35-.08.07-.15.1-.2.1-.09,0-.17-.05-.23-.14-.06-.09-.1-.2-.1-.32,0-.09.03-.29.1-.6l.03-.16c-.1.24-.24.47-.41.68-.29.36-.56.55-.82.55-.16,0-.28-.06-.37-.17-.09-.11-.14-.27-.14-.46,0-.26.07-.53.22-.82s.33-.52.55-.7c.22-.18.43-.28.64-.28.22,0,.38.08.49.24l.05-.16.39-.16Zm-.48.53c-.03-.1-.09-.19-.17-.25-.08-.06-.17-.09-.27-.09-.12,0-.25.06-.39.17-.14.11-.26.27-.37.47-.09.16-.16.33-.22.52-.06.19-.09.35-.09.47,0,.14.03.25.08.33.05.08.13.12.23.12.13,0,.26-.06.4-.18.14-.12.27-.29.41-.51.08-.13.15-.25.19-.38.05-.13.1-.3.16-.53l.04-.15Z"></path>
  <path class="cls-7" d="m56.27,59.78l-.31,1.38c-.03.15-.05.26-.05.32,0,.1.02.18.07.24s.11.09.19.09.14-.02.21-.06c.06-.04.16-.13.28-.27l.05-.05.06.06c-.16.2-.3.34-.41.42s-.22.12-.32.12c-.13,0-.24-.04-.32-.13-.08-.09-.12-.2-.12-.34,0-.1.02-.26.06-.46l.27-1.33h-.4l.03-.14h.4l.23-1.12.4-.16-.29,1.28h.67l-.03.14h-.67Z"></path>
  <path class="cls-7" d="m63.14,61.67l-.18.4c-.08.01-.15.02-.21.02-.12,0-.29-.02-.49-.05-.15-.03-.3-.06-.45-.1s-.34-.1-.57-.17c-.19-.06-.38-.12-.57-.17-.17.16-.37.29-.6.38-.23.09-.46.13-.7.13-.27,0-.49-.05-.65-.15-.16-.1-.25-.23-.25-.39,0-.17.09-.31.28-.4s.43-.15.75-.15c.36,0,.76.06,1.21.19.08-.14.15-.29.2-.45s.11-.38.16-.65l.29-1.38c.09-.4.17-.71.24-.94s.16-.42.25-.58c.09-.15.2-.29.31-.41s.24-.21.37-.27c.13-.06.25-.1.37-.1.13,0,.25.03.35.09.1.06.17.15.23.27.05.12.08.25.08.41,0,.14-.03.32-.08.53-.05.22-.12.41-.2.6l-.39.06c.12-.22.21-.45.29-.7.08-.25.12-.46.12-.64,0-.16-.03-.29-.1-.38s-.17-.13-.3-.13c-.28,0-.52.19-.71.56-.06.12-.11.25-.15.37s-.09.33-.15.62l-.37,1.73c-.08.37-.16.66-.25.88-.09.22-.19.41-.33.58l.1.03c.42.14.75.24,1,.3.25.06.47.09.66.09.13,0,.28-.02.44-.05Zm-2.66-.14l-.1-.03c-.49-.15-.87-.22-1.14-.22-.42,0-.63.11-.63.33,0,.11.07.2.22.28.14.08.32.11.54.11s.41-.04.6-.12c.19-.08.36-.2.5-.34Z"></path>
  <path class="cls-7" d="m65.73,59.54l-.39,1.52c-.04.17-.06.3-.06.39,0,.08.02.15.05.22.04.06.08.09.13.09.08,0,.21-.1.4-.29l.06.06-.05.05c-.15.17-.26.29-.34.35-.08.07-.15.1-.2.1-.09,0-.17-.05-.23-.14-.06-.09-.1-.2-.1-.32,0-.09.03-.29.1-.6l.03-.16c-.1.24-.24.47-.41.68-.29.36-.56.55-.82.55-.16,0-.28-.06-.37-.17-.09-.11-.14-.27-.14-.46,0-.26.07-.53.22-.82s.33-.52.55-.7c.22-.18.43-.28.64-.28.22,0,.38.08.49.24l.05-.16.39-.16Zm-.48.53c-.03-.1-.09-.19-.17-.25-.08-.06-.17-.09-.27-.09-.12,0-.25.06-.39.17-.14.11-.26.27-.37.47-.09.16-.16.33-.22.52-.06.19-.09.35-.09.47,0,.14.03.25.08.33.05.08.13.12.23.12.13,0,.26-.06.4-.18.14-.12.27-.29.41-.51.08-.13.15-.25.19-.38.05-.13.1-.3.16-.53l.04-.15Z"></path>
  <path class="cls-7" d="m66.27,59.73l.37-.17v.11c0,.2,0,.38.02.55s.03.41.06.72c.04.36.07.59.09.67.02.08.05.12.1.12.06,0,.16-.1.3-.29.14-.19.27-.43.41-.71l-.13-.99.38-.17v.1c.03.59.05,1.01.07,1.27,0,.07.02.14.02.21,0,.07.01.13.02.17,0,.04.01.09.02.14,0,.05.01.09.02.11.02.09.06.14.11.14.1,0,.27-.2.51-.59.23-.36.34-.67.34-.92,0-.2-.07-.35-.2-.44l.31-.29c.1.11.14.25.14.43,0,.19-.05.41-.16.66-.11.25-.27.52-.48.82-.13.19-.25.34-.36.46-.12.14-.22.21-.3.21-.06,0-.11-.03-.14-.08-.03-.06-.05-.15-.07-.29l-.09-.74c-.12.25-.26.48-.42.69-.21.28-.37.43-.5.43-.06,0-.1-.03-.13-.08s-.05-.15-.07-.28l-.25-1.95Z"></path>
  <path class="cls-4" d="m27.83,61.16H8.96c-2.44,0-4.88,0-7.32,0h-.6c-.1,0-.28.03-.33.14s.04.14.14.14h26.79c.1,0,.28-.03.33-.14s-.04-.14-.14-.14h0Z"></path>
  <path class="cls-5" d="m28.09,60.02H8.94c-2.44,0-4.89,0-7.33,0h-.57c-.1,0-.28.03-.33.14s.04.14.14.14h27.05c.1,0,.28-.03.33-.14s-.04-.14-.14-.14h0Z"></path>
  <path class="cls-3" d="m98.89,61.16h-18.87c-2.44,0-4.88,0-7.32,0h-.6c-.1,0-.28.03-.33.14s.04.14.14.14h26.79c.1,0,.28-.03.33-.14s-.04-.14-.14-.14h0Z"></path>
  <path class="cls-6" d="m99.16,60.02h-19.15c-2.44,0-4.89,0-7.33,0h-.57c-.1,0-.28.03-.33.14s.04.14.14.14h27.05c.1,0,.28-.03.33-.14s-.04-.14-.14-.14h0Z"></path>
  <path class="cls-7" d="m7.78,49.66s-.04-.09,0-.11h1.07v5.11h-1.07s-.04-.09,0-.11l.45-.05.06-.07v-4.65l-.06-.07-.45-.05Zm1.85,4.84l.45.05s.04.09,0,.11h-1.07v-5.11h1.07s.04.09,0,.11l-.45.05-.06.07v4.65l.06.07Z"></path>
  <path class="cls-7" d="m12.93,49.55v5.11h-1.07s-.04-.09,0-.11l.46-.05.06-.07v-4.65l-.06-.07-.46-.05s-.03-.08,0-.11h1.07Zm.16,5.11v-5.11h1.14c1.31,0,1.94.36,1.94,1.14,0,.61-.41.97-1.04,1.12.35-.28.5-.6.5-1.05,0-.79-.71-1.04-1.69-1.04h-.04c-.09,0-.18,0-.26,0v2.14l.44-.04c.71-.06.86-.53.86-1.07,0-.33-.12-.69-.37-.88.55.07.9.42.9.89s-.26.94-.74,1.12v.02c1.23.08,1.75.59,1.75,1.33,0,.65-.37,1.14-1.08,1.33.29-.26.47-.68.47-1.22,0-.99-.8-1.28-1.95-1.35l-.28-.02v1.82c0,.56.13.72.53.72.53,0,.95-.28.95-1.17,0-.42-.09-.85-.34-1.09.74.2.93.66.93,1.1,0,.73-.36,1.31-1.09,1.31h-1.53Z"></path>
  <path class="cls-7" d="m19.36,49.55v5.11h-1.07s-.04-.09,0-.11l.46-.05.06-.07v-4.65l-.06-.07-.46-.05s-.03-.08,0-.11h1.07Zm.16,5.11v-5.11h1.14c1.31,0,1.94.36,1.94,1.14,0,.61-.41.97-1.04,1.12.35-.28.5-.6.5-1.05,0-.79-.71-1.04-1.69-1.04h-.04c-.09,0-.18,0-.26,0v2.14l.44-.04c.71-.06.86-.53.86-1.07,0-.33-.12-.69-.37-.88.55.07.9.42.9.89s-.26.94-.74,1.12v.02c1.23.08,1.75.59,1.75,1.33,0,.65-.37,1.14-1.08,1.33.29-.26.47-.68.47-1.22,0-.99-.8-1.28-1.95-1.35l-.28-.02v1.82c0,.56.13.72.53.72.53,0,.95-.28.95-1.17,0-.42-.09-.85-.34-1.09.74.2.93.66.93,1.1,0,.73-.36,1.31-1.09,1.31h-1.53Z"></path>
  <path class="cls-7" d="m29.23,52.02c0,1.33-.5,2.01-1.15,2.28.36-.38.53-1.12.53-2.15,0-1.66-.34-2.51-1.17-2.51-1.24,0-1.96,1.04-1.96,2.58,0,1.22.28,1.91.78,2.35-.88-.36-1.4-1.16-1.4-2.33,0-1.66,1.2-2.77,2.56-2.77,1.24,0,1.81.96,1.81,2.56Zm-3.59.19c0-1.33.51-2.01,1.15-2.28-.36.38-.53,1.12-.53,2.15,0,1.63.34,2.51,1.17,2.51,1.25,0,1.96-1.04,1.96-2.58,0-1.22-.28-1.9-.78-2.34.93.36,1.4,1.15,1.4,2.28,0,1.67-1.24,2.82-2.59,2.82-1.2,0-1.78-.96-1.78-2.56Z"></path>
  <path class="cls-7" d="m31.67,49.66s-.04-.09,0-.11h.99l3.89,4.46v.65h-.15l-3.57-4.08.06,3.57.04.07.8.33s.04.09,0,.11h-1.88s-.04-.09,0-.11l.61-.33.06-.07.13-3.76-.42-.46-.55-.26Zm5.65-.11s.04.09,0,.11l-.6.32-.05.08-.12,3.71-3.68-4.22h.71l2.82,3.23-.09-2.72-.05-.08-.77-.32s-.04-.09,0-.11h1.82Z"></path>
  <path class="cls-7" d="m39.3,54.48l-.09-1.39s.07-.05.1-.02c.38.92.85,1.51,1.45,1.51s.94-.38.94-.95c0-.42-.25-.64-.79-.85l-.6-.23c-.64-.25-1.07-.63-1.07-1.44,0-.51.2-.92.61-1.25-.2.32-.26.67-.26.94,0,.56.2.97.96,1.25l.7.26c.5.2.89.51.89,1.16,0,.92-.45,1.28-1.36,1.28-.5,0-1.08-.11-1.49-.28Zm3.01-1.01c0-.77-.41-1.08-1.01-1.31l-.68-.26c-.64-.24-.86-.63-.86-1.11,0-.89.56-1.36,1.32-1.36.5,0,1.01.14,1.34.31l.07,1.2s-.09.04-.11,0c-.5-1.06-.81-1.35-1.3-1.35s-.95.39-.95.96c0,.43.24.61.9.88l.54.22c.76.3,1.17.66,1.17,1.37,0,.53-.23.98-.61,1.28.15-.25.18-.55.18-.86Z"></path>
  <path class="cls-7" d="m49.71,53.91c.22,0,.44-.03.63-.12-.24.23-.63.45-1.14.45-.82,0-1.17-.58-1.17-1.23,0-.38.18-.78.51-.96l.39-.13-.04-.03c-.56-.5-.68-.8-.68-1.18,0-.42.23-.78.58-1.01-.14.18-.2.42-.2.65,0,.53.3.85.66,1.17.64.58,1.3,1.2,1.94,1.78.85.98,1.29,1.26,1.67,1.26.04,0,.07,0,.1,0-.16.12-.37.18-.63.18-.4,0-.72-.14-1.5-1.08-.46.77-1.13,1.09-1.8,1.09-.96,0-1.61-.55-1.61-1.42,0-.41.22-.89.75-1.16-.2.23-.31.55-.31.88,0,.67.41,1.33,1.31,1.33s1.36-.56,1.54-.85l-1.68-1.51c-.27.23-.47.54-.47.91,0,.63.56.96,1.13.96Zm.19-2.63l.18.16c.18-.21.26-.49.26-.92,0-.36-.07-.63-.19-.78.42.12.61.44.61.79,0,.28-.09.69-.38.97l-.17.07,1.24,1.11c.22-.37.45-.77.66-1.14l-.02-.06-.55-.23s-.03-.03-.03-.05.01-.05.04-.06h1.83s.04.02.04.04-.01.04-.04.07l-.6.25-1.2,1.31c.95.99,1.1,1.16,1.34,1.16.18,0,.31-.1.36-.29h.09c-.04.41-.16.74-.52.74s-.8-.34-1.55-1.21l-1.96-1.79c-.33-.3-.61-.61-.61-1.07,0-.57.37-.9,1.05-.92.93,0,1.53.41,1.53,1.04,0,.32-.21.65-.66.89.16-.27.24-.53.24-.85,0-.67-.53-.93-1.03-.93-.47,0-.66.25-.66.67,0,.34.19.58.68,1.01Z"></path>
  <path class="cls-7" d="m65.03,49.66s-.04-.09,0-.11h1.07v5.11h-1.07s-.04-.09,0-.11l.45-.05.06-.07v-4.65l-.06-.07-.45-.05Zm1.85,4.84l.45.05s.04.09,0,.11h-1.07v-5.11h1.07s.04.09,0,.11l-.45.05-.06.07v4.65l.06.07Z"></path>
  <path class="cls-7" d="m70.19,49.55v5.11h-1.07s-.04-.09,0-.11l.46-.05.06-.07v-4.65l-.06-.07-.46-.05s-.03-.08,0-.11h1.07Zm.16,5.11v-5.11h1.14c1.31,0,1.94.36,1.94,1.14,0,.61-.41.97-1.04,1.12.35-.28.5-.6.5-1.05,0-.79-.71-1.04-1.69-1.04h-.04c-.09,0-.18,0-.26,0v2.14l.44-.04c.71-.06.86-.53.86-1.07,0-.33-.12-.69-.37-.88.55.07.9.42.9.89s-.26.94-.74,1.12v.02c1.23.08,1.75.59,1.75,1.33,0,.65-.37,1.14-1.08,1.33.29-.26.47-.68.47-1.22,0-.99-.8-1.28-1.95-1.35l-.28-.02v1.82c0,.56.13.72.53.72.53,0,.95-.28.95-1.17,0-.42-.09-.85-.34-1.09.74.2.93.66.93,1.1,0,.73-.36,1.31-1.09,1.31h-1.53Z"></path>
  <path class="cls-7" d="m76.62,49.55v5.11h-1.07s-.04-.09,0-.11l.46-.05.06-.07v-4.65l-.06-.07-.46-.05s-.03-.08,0-.11h1.07Zm.16,5.11v-5.11h1.14c1.31,0,1.94.36,1.94,1.14,0,.61-.41.97-1.04,1.12.35-.28.5-.6.5-1.05,0-.79-.71-1.04-1.69-1.04h-.04c-.09,0-.18,0-.26,0v2.14l.44-.04c.71-.06.86-.53.86-1.07,0-.33-.12-.69-.37-.88.55.07.9.42.9.89s-.26.94-.74,1.12v.02c1.23.08,1.75.59,1.75,1.33,0,.65-.37,1.14-1.08,1.33.29-.26.47-.68.47-1.22,0-.99-.8-1.28-1.95-1.35l-.28-.02v1.82c0,.56.13.72.53.72.53,0,.95-.28.95-1.17,0-.42-.09-.85-.34-1.09.74.2.93.66.93,1.1,0,.73-.36,1.31-1.09,1.31h-1.53Z"></path>
  <path class="cls-7" d="m86.48,52.02c0,1.33-.5,2.01-1.15,2.28.36-.38.53-1.12.53-2.15,0-1.66-.34-2.51-1.17-2.51-1.24,0-1.96,1.04-1.96,2.58,0,1.22.28,1.91.78,2.35-.88-.36-1.4-1.16-1.4-2.33,0-1.66,1.2-2.77,2.56-2.77,1.24,0,1.81.96,1.81,2.56Zm-3.59.19c0-1.33.51-2.01,1.15-2.28-.36.38-.53,1.12-.53,2.15,0,1.63.34,2.51,1.17,2.51,1.25,0,1.96-1.04,1.96-2.58,0-1.22-.28-1.9-.78-2.34.93.36,1.4,1.15,1.4,2.28,0,1.67-1.24,2.82-2.59,2.82-1.2,0-1.78-.96-1.78-2.56Z"></path>
  <path class="cls-7" d="m88.92,49.66s-.04-.09,0-.11h.99l3.89,4.46v.65h-.15l-3.57-4.08.06,3.57.04.07.8.33s.04.09,0,.11h-1.88s-.04-.09,0-.11l.61-.33.06-.07.13-3.76-.42-.46-.55-.26Zm5.65-.11s.04.09,0,.11l-.6.32-.05.08-.12,3.71-3.68-4.22h.71l2.82,3.23-.09-2.72-.05-.08-.77-.32s-.04-.09,0-.11h1.82Z"></path>
  <path class="cls-7" d="m96.56,54.48l-.09-1.39s.07-.05.1-.02c.38.92.85,1.51,1.45,1.51s.94-.38.94-.95c0-.42-.25-.64-.79-.85l-.6-.23c-.64-.25-1.07-.63-1.07-1.44,0-.51.2-.92.61-1.25-.2.32-.26.67-.26.94,0,.56.2.97.96,1.25l.7.26c.5.2.89.51.89,1.16,0,.92-.44,1.28-1.36,1.28-.5,0-1.08-.11-1.49-.28Zm3.01-1.01c0-.77-.41-1.08-1.01-1.31l-.68-.26c-.64-.24-.86-.63-.86-1.11,0-.89.56-1.36,1.32-1.36.5,0,1.01.14,1.34.31l.07,1.2s-.09.04-.11,0c-.5-1.06-.81-1.35-1.3-1.35s-.95.39-.95.96c0,.43.24.61.9.88l.54.22c.76.3,1.17.66,1.17,1.37,0,.53-.23.98-.61,1.28.15-.25.18-.55.18-.86Z"></path>
  <path class="cls-7" d="m5.89,54.17s-.2.02-.23.02c-.05,0-.08,0-.1-.09-.03-.11-.03-.42-.03-.87v-.74s-.02.02-.03.03c-.11.09-.22.19-.35.27h0s0,0,0,0c-.08.05-.16.09-.23.13v1.63c.37-.07.72-.17,1-.26.03-.04.03-.09-.02-.11Zm-1.79-1.03v1.28c-.17.06-.41.08-.59.08-1.34,0-1.86-1.11-1.86-2.83,0-1.18.39-2.14.98-2.62-.85.28-1.76,1.05-1.76,2.73s.76,2.93,2.47,2.93c.34,0,.86-.06,1.38-.15v-1.57c-.21.09-.42.14-.62.14Zm0-.15h0s0,0,.01,0c0,0,0,0-.01,0Zm1.21-4.44s-.09-.03-.11,0l-.18.29h-.05c-.36-.2-.99-.31-1.49-.31-1.88,0-3.48,1.24-3.48,3.24,0,1.35.56,2.31,1.76,2.73-.66-.45-1.08-1.29-1.08-2.71,0-2.5,1.86-3.09,2.84-3.05.71,0,1.09.43,1.81,1.72.04.04.1.03.12-.03l-.14-1.86Z"></path>
  <path class="cls-7" d="m4.12,52.74h0s0,0,0,0c0,0,0,0,.01,0Z"></path>
  <polygon class="cls-7" points="4.14 52.74 4.14 52.74 4.13 52.74 4.14 52.74 4.14 52.74"></polygon>
  <path class="cls-7" d="m4.51,52.24s-.03.02-.05.03h0s.03-.02.05-.03Z"></path>
  <path class="cls-7" d="m5.72,51.99s-.03,0-.04,0c0,0,0,0,.01,0h.02Z"></path>
  <path class="cls-7" d="m5.58,52.03s.03,0,.05-.01c0,0,0,0,0,0-.01,0-.02,0-.04.01Z"></path>
  <path class="cls-7" d="m5.65,52.01s-.01,0-.02,0c0,0,0,0,0,0,0,0,0,0,.01,0Z"></path>
  <path class="cls-7" d="m4.1,52.74s0,0,0,0c0,0-.02,0-.03,0,.01,0,.02,0,.03,0h0s0,0-.01,0Zm-.03,0s-.06,0-.1.01c.03,0,.06,0,.1-.01Zm-.31.01s.08,0,.12,0c.03,0,.06,0,.1,0-.07,0-.14,0-.21,0Zm-.12-.02c-.05-.01-.1-.02-.15-.04.05.02.1.03.15.04Zm-.19-.05s-.07-.03-.11-.05c.04.02.07.03.11.05Zm-.15-.06s-.07-.04-.1-.06c.03.02.07.04.1.06Zm2.27-.6s.02,0,.04-.01c0,0,0,0,0,0-.02,0-.03,0-.05.01Z"></path>
  <path class="cls-7" d="m6.23,52.05c-.11-.05-.22-.07-.33-.07-.06,0-.12,0-.18.02,0,0-.02,0-.02,0-.01,0-.03,0-.04.01,0,0,0,0-.01,0,0,0,0,0,0,0-.02,0-.03,0-.05.01,0,0,0,0,0,0h0s-.04.01-.06.02c0,0,0,0-.01,0-.01,0-.02,0-.03.01,0,0-.01,0-.02,0-.02,0-.04.02-.06.03,0,0,0,0,0,0-.05.02-.09.05-.13.07-.1.06-.2.12-.3.19-.02.01-.04.02-.06.03-.03.02-.06.04-.09.05-.03.02-.06.03-.09.05,0,0,0,0,0,0-.04.02-.08.04-.12.06,0,0-.01,0-.02,0-.07.04-.14.07-.22.09-.01,0-.03.01-.04.02-.01,0-.02,0-.03,0-.05.02-.1.03-.15.04,0,0,0,0,0,0,0,0,0,0,0,0,0,0-.01,0-.02,0,0,0,0,0-.01,0,0,0,0,0,0,0,0,0-.02,0-.03,0-.03,0-.06,0-.1.01h0c-.07,0-.14,0-.21,0-.04,0-.08,0-.12-.02-.05-.01-.1-.02-.15-.04-.01,0-.02,0-.04-.01-.04-.01-.07-.03-.11-.05-.01,0-.02-.01-.04-.02-.03-.02-.07-.04-.1-.06-.07-.04-.13-.09-.18-.15-.02-.02-.04-.04-.05-.06,0,0-.02-.02-.02-.03-.02-.03-.04-.06-.06-.1-.01-.02-.02-.04-.04-.07.15.12.31.2.47.25.01,0,.03,0,.04.01.11.03.23.05.34.05.06,0,.13,0,.19-.01.03,0,.06-.01.09-.02.04,0,.08-.02.12-.03.02,0,.05-.01.07-.02,0,0,.02,0,.02,0,.01,0,.02,0,.04-.01.01,0,.02,0,.03-.01,0,0,0,0,.01,0,.03-.01.06-.03.09-.04.03-.01.06-.03.09-.05.02,0,.03-.02.05-.03.02-.01.04-.02.07-.04.04-.02.08-.04.12-.06.07-.04.15-.08.23-.12.04-.02.08-.04.12-.06.08-.04.17-.07.26-.1.11-.03.22-.05.34-.05.15,0,.29.03.41.1.02,0,.03.02.04.03.03.02.05.04.08.06.01,0,.02.02.03.03,0,0,.02.02.03.03Z"></path>
  <path class="cls-7" d="m4.71,51.96s-.03.01-.05.02c-.18.07-.38.14-.59.19-.33.08-.67.11-.98-.01.2.13.42.19.64.19.13,0,.27-.02.4-.07.09-.03.19-.07.28-.12h0s0,0,0,0c.18-.09.34-.2.53-.26,0,0-.07,0-.25.07Z"></path>
  <polygon class="cls-7" points="3.51 52.86 3.51 52.86 3.51 52.86 3.51 52.86"></polygon>
  <polygon class="cls-7" points="3.52 52.86 3.51 52.86 3.51 52.86 3.52 52.86"></polygon>
  <path class="cls-7" d="m4.11,53s0,0-.01,0c-.02,0-.03,0-.05,0,.02,0,.03,0,.05,0,0,0,0,0,.01,0Z"></path>
  <path class="cls-7" d="m4.1,53s-.03,0-.05,0c.02,0,.03,0,.05,0,0,0,0,0,.01,0,0,0,0,0-.01,0Zm-.59-.14s0,0,0,0h0s0,0,0,0Zm0,0s0,0,0,0c0,0,0,0,0,0t0,0Zm0,0h0"></path>
  <path class="cls-7" d="m3.51,52.86s0,0,0,0t0,0s0,0,0,0Zm2.01-.57c-.15.12-.3.26-.46.37-.02.01-.04.02-.06.03-.03.02-.07.04-.1.06-.06.03-.12.06-.18.09-.17.08-.36.13-.54.15-.01,0-.03,0-.04,0,0,0-.02,0-.03,0,0,0,0,0-.01,0-.02,0-.03,0-.05,0-.18,0-.36-.04-.54-.14t0,0s0,0,0,0h0s.05.01.08.02c.1.02.19.03.29.03.07,0,.15,0,.22-.02.02,0,.05,0,.07-.01.2-.04.38-.12.55-.21.06-.03.12-.07.18-.1.07-.04.13-.08.19-.12.13-.08.25-.16.37-.22.03-.01.06-.03.09-.04.06-.02.12-.04.18-.06-.07.05-.14.1-.2.15Z"></path>
  <path class="cls-7" d="m5.72,52.14c-.07.05-.14.1-.2.15-.15.12-.3.26-.46.37-.02.01-.04.02-.06.03-.03.02-.07.04-.1.06-.06.03-.12.06-.18.09-.17.08-.36.13-.54.15-.01,0-.03,0-.04,0,0,0-.02,0-.03,0,0,0,0,0-.01,0-.02,0-.03,0-.05,0-.18,0-.36-.04-.54-.14.03,0,.05.01.08.02.1.02.19.03.29.03.07,0,.15,0,.22-.02.02,0,.05,0,.07-.01.2-.04.38-.12.55-.21.06-.03.12-.07.18-.1.07-.04.13-.08.19-.12.13-.08.25-.16.37-.22.03-.01.06-.03.09-.04.06-.02.12-.04.18-.06Z"></path>
  <path class="cls-7" d="m63.56,54.17s-.2.02-.23.02c-.05,0-.08,0-.1-.09-.03-.11-.03-.42-.03-.87v-.74s-.02.02-.03.03c-.11.09-.22.19-.35.27h0s0,0,0,0c-.08.05-.16.09-.23.13v1.63c.37-.07.72-.17,1-.26.03-.04.03-.09-.02-.11Zm-1.79-1.03v1.28c-.17.06-.41.08-.59.08-1.34,0-1.86-1.11-1.86-2.83,0-1.18.39-2.14.98-2.62-.85.28-1.76,1.05-1.76,2.73s.76,2.93,2.47,2.93c.34,0,.86-.06,1.38-.15v-1.57c-.21.09-.42.14-.62.14Zm0-.15h0s0,0,.01,0c0,0,0,0-.01,0Zm1.21-4.44s-.09-.03-.11,0l-.18.29h-.05c-.36-.2-.99-.31-1.49-.31-1.88,0-3.48,1.24-3.48,3.24,0,1.35.56,2.31,1.76,2.73-.66-.45-1.08-1.29-1.08-2.71,0-2.5,1.86-3.09,2.84-3.05.71,0,1.09.43,1.81,1.72.04.04.1.03.12-.03l-.14-1.86Z"></path>
  <path class="cls-7" d="m61.79,52.74h0s0,0,0,0c0,0,0,0,.01,0Z"></path>
  <polygon class="cls-7" points="61.81 52.74 61.81 52.74 61.81 52.74 61.81 52.74 61.81 52.74"></polygon>
  <path class="cls-7" d="m62.18,52.24s-.03.02-.05.03h0s.03-.02.05-.03Z"></path>
  <path class="cls-7" d="m63.39,51.99s-.03,0-.04,0c0,0,0,0,.01,0h.02Z"></path>
  <path class="cls-7" d="m63.26,52.03s.03,0,.05-.01c0,0,0,0,0,0-.01,0-.02,0-.04.01Z"></path>
  <path class="cls-7" d="m63.32,52.01s-.01,0-.02,0c0,0,0,0,0,0,0,0,0,0,.01,0Z"></path>
  <path class="cls-7" d="m61.77,52.74s0,0,0,0c0,0-.02,0-.03,0,.01,0,.02,0,.03,0h0s0,0-.01,0Zm-.03,0s-.06,0-.1.01c.03,0,.06,0,.1-.01Zm-.31.01s.08,0,.12,0c.03,0,.06,0,.1,0-.07,0-.14,0-.21,0Zm-.12-.02c-.05-.01-.1-.02-.15-.04.05.02.1.03.15.04Zm-.19-.05s-.07-.03-.11-.05c.04.02.07.03.11.05Zm-.15-.06s-.07-.04-.1-.06c.03.02.07.04.1.06Zm2.27-.6s.02,0,.04-.01c0,0,0,0,0,0-.02,0-.03,0-.05.01Z"></path>
  <path class="cls-7" d="m63.9,52.05c-.11-.05-.22-.07-.33-.07-.06,0-.12,0-.18.02,0,0-.02,0-.02,0-.01,0-.03,0-.04.01,0,0,0,0-.01,0,0,0,0,0,0,0-.02,0-.03,0-.05.01,0,0,0,0,0,0h0s-.04.01-.06.02c0,0,0,0-.01,0-.01,0-.02,0-.03.01,0,0-.01,0-.02,0-.02,0-.04.02-.06.03,0,0,0,0,0,0-.05.02-.09.05-.13.07-.1.06-.2.12-.3.19-.02.01-.04.02-.06.03-.03.02-.06.04-.09.05-.03.02-.06.03-.09.05,0,0,0,0,0,0-.04.02-.08.04-.12.06,0,0-.01,0-.02,0-.07.04-.14.07-.22.09-.01,0-.03.01-.04.02-.01,0-.02,0-.03,0-.05.02-.1.03-.15.04,0,0,0,0,0,0,0,0,0,0,0,0,0,0-.01,0-.02,0,0,0,0,0-.01,0,0,0,0,0,0,0,0,0-.02,0-.03,0-.03,0-.06,0-.1.01h0c-.07,0-.14,0-.21,0-.04,0-.08,0-.12-.02-.05-.01-.1-.02-.15-.04-.01,0-.02,0-.04-.01-.04-.01-.07-.03-.11-.05-.01,0-.02-.01-.04-.02-.03-.02-.07-.04-.1-.06-.07-.04-.13-.09-.18-.15-.02-.02-.04-.04-.05-.06,0,0-.02-.02-.02-.03-.02-.03-.04-.06-.06-.1-.01-.02-.02-.04-.04-.07.15.12.31.2.47.25.01,0,.03,0,.04.01.11.03.23.05.34.05.06,0,.13,0,.19-.01.03,0,.06-.01.09-.02.04,0,.08-.02.12-.03.02,0,.05-.01.07-.02,0,0,.02,0,.02,0,.01,0,.02,0,.04-.01.01,0,.02,0,.03-.01,0,0,0,0,.01,0,.03-.01.06-.03.09-.04.03-.01.06-.03.09-.05.02,0,.03-.02.05-.03.02-.01.04-.02.07-.04.04-.02.08-.04.12-.06.07-.04.15-.08.23-.12.04-.02.08-.04.12-.06.08-.04.17-.07.26-.1.11-.03.22-.05.34-.05.15,0,.29.03.41.1.02,0,.03.02.04.03.03.02.05.04.08.06.01,0,.02.02.03.03,0,0,.02.02.03.03Z"></path>
  <path class="cls-7" d="m62.38,51.96s-.03.01-.05.02c-.18.07-.38.14-.59.19-.33.08-.67.11-.98-.01.2.13.42.19.64.19.13,0,.27-.02.4-.07.09-.03.19-.07.28-.12h0s0,0,0,0c.18-.09.34-.2.53-.26,0,0-.07,0-.25.07Z"></path>
  <polygon class="cls-7" points="61.19 52.86 61.18 52.86 61.18 52.86 61.19 52.86"></polygon>
  <polygon class="cls-7" points="61.19 52.86 61.19 52.86 61.19 52.86 61.19 52.86"></polygon>
  <path class="cls-7" d="m61.79,53s0,0-.01,0c-.02,0-.03,0-.05,0,.02,0,.03,0,.05,0,0,0,0,0,.01,0Z"></path>
  <path class="cls-7" d="m61.77,53s-.03,0-.05,0c.02,0,.03,0,.05,0,0,0,0,0,.01,0,0,0,0,0-.01,0Zm-.59-.14s0,0,0,0h0s0,0,0,0Zm0,0s0,0,0,0c0,0,0,0,0,0t0,0Zm0,0h0"></path>
  <path class="cls-7" d="m61.18,52.86s0,0,0,0t0,0s0,0,0,0Zm2.01-.57c-.15.12-.3.26-.46.37-.02.01-.04.02-.06.03-.03.02-.07.04-.1.06-.06.03-.12.06-.18.09-.17.08-.36.13-.54.15-.01,0-.03,0-.04,0,0,0-.02,0-.03,0,0,0,0,0-.01,0-.02,0-.03,0-.05,0-.18,0-.36-.04-.54-.14t0,0s0,0,0,0h0s.05.01.08.02c.1.02.19.03.29.03.07,0,.15,0,.22-.02.02,0,.05,0,.07-.01.2-.04.38-.12.55-.21.06-.03.12-.07.18-.1.07-.04.13-.08.19-.12.13-.08.25-.16.37-.22.03-.01.06-.03.09-.04.06-.02.12-.04.18-.06-.07.05-.14.1-.2.15Z"></path>
  <path class="cls-7" d="m63.4,52.14c-.07.05-.14.1-.2.15-.15.12-.3.26-.46.37-.02.01-.04.02-.06.03-.03.02-.07.04-.1.06-.06.03-.12.06-.18.09-.17.08-.36.13-.54.15-.01,0-.03,0-.04,0,0,0-.02,0-.03,0,0,0,0,0-.01,0-.02,0-.03,0-.05,0-.18,0-.36-.04-.54-.14.03,0,.05.01.08.02.1.02.19.03.29.03.07,0,.15,0,.22-.02.02,0,.05,0,.07-.01.2-.04.38-.12.55-.21.06-.03.12-.07.18-.1.07-.04.13-.08.19-.12.13-.08.25-.16.37-.22.03-.01.06-.03.09-.04.06-.02.12-.04.18-.06Z"></path>
</svg>
