<?xml version="1.0" encoding="UTF-8"?>
<svg xmlns="http://www.w3.org/2000/svg" xmlns:xlink="http://www.w3.org/1999/xlink" id="Layer_1" viewBox="0 0 50 50">
  <defs>
    <style>.cls-1{mask:url(#mask);}.cls-2{fill:url(#linear-gradient);}.cls-2,.cls-3{stroke-width:0px;}.cls-3{fill:#fff;}</style>
    <mask id="mask" x="0" y="0" width="50" height="50" maskUnits="userSpaceOnUse">
      <path class="cls-3" d="m45.88,44.16c-.32.06-1.47.13-1.73.13-.38,0-.64-.07-.77-.71-.19-.83-.26-3.14-.26-6.53v-5.59c-.08.07-.16.14-.24.21-.83.7-1.68,1.42-2.64,2.06h-.01s-.01.01-.01.01c-.6.37-1.18.7-1.77.99v12.25c2.76-.51,5.44-1.28,7.56-1.98.26-.32.19-.64-.13-.83Zm-13.45-7.73v9.65c-1.28.45-3.08.64-4.42.64-10.12,0-14.03-8.39-14.03-21.33,0-8.91,2.95-16.14,7.37-19.73-6.41,2.11-13.26,7.88-13.26,20.56s5.7,22.1,18.64,22.1c2.57,0,6.47-.45,10.38-1.15v-11.82c-1.62.67-3.18,1.03-4.67,1.08Zm0-1.1h0s.07,0,.1,0c-.03,0-.07,0-.1,0ZM41.53,1.87c-.19-.26-.64-.26-.83,0l-1.34,2.18h-.38c-2.69-1.47-7.43-2.37-11.21-2.37C13.6,1.68,1.55,11.04,1.55,26.09c0,10.19,4.23,17.42,13.26,20.56-4.93-3.39-8.13-9.74-8.13-20.43C6.68,7.39,20.71,2.96,28.08,3.22c5.38.06,8.2,3.27,13.64,12.94.32.32.77.19.9-.26l-1.09-14.03Z"></path>
      <path class="cls-3" d="m32.55,33.4h-.05s-.04.02-.05.02c.04,0,.07-.01.11-.02Z"></path>
      <path class="cls-3" d="m32.74,33.36h-.03s-.03.01-.03.01c.01,0,.02,0,.03,0,0,0,.02,0,.03,0Z"></path>
      <path class="cls-3" d="m35.49,29.62c-.13.07-.26.13-.39.2h.01c.12-.07.25-.14.37-.2Z"></path>
      <path class="cls-3" d="m44.61,27.78c-.1.02-.19.04-.29.07.03,0,.07-.02.1-.03l.19-.04Z"></path>
      <path class="cls-3" d="m43.6,28.04c.11-.04.23-.07.35-.1-.03,0-.05.01-.07.02-.09.03-.18.05-.27.08Z"></path>
      <path class="cls-3" d="m44.1,27.89c-.05.01-.1.03-.15.04.03,0,.05-.01.07-.02.03,0,.05-.01.08-.02Z"></path>
      <path class="cls-3" d="m32.44,33.42s0,0-.01,0c-.06.01-.13.03-.19.04.08-.01.17-.03.26-.05h.05s-.07,0-.11,0Zm-.2.04c-.24.04-.48.07-.72.09.24-.02.48-.05.72-.09Zm-2.34.08c.3.03.6.05.89.05.24,0,.49-.01.73-.03-.54.04-1.08.04-1.62-.01Zm-.89-.13c-.39-.08-.78-.18-1.16-.31.38.13.77.23,1.16.31Zm-1.44-.41c-.28-.11-.56-.22-.83-.35.27.13.54.25.83.35Zm-1.09-.49c-.26-.14-.52-.29-.76-.45.24.16.5.31.76.45Zm17.12-4.49c.09-.03.18-.05.27-.08.03,0,.05-.01.07-.02-.12.03-.23.06-.35.1Z"></path>
      <path class="cls-3" d="m48.45,28.17c-.81-.37-1.65-.53-2.48-.53-.46,0-.91.05-1.36.14-.06.01-.12.03-.19.04-.11.02-.22.05-.33.08-.03,0-.05.01-.08.02-.03,0-.05.01-.07.02-.12.03-.23.06-.35.1-.02,0-.03.01-.05.02h0c-.16.05-.31.11-.47.16-.03.01-.06.03-.09.04-.08.03-.16.07-.24.1-.04.02-.08.04-.13.05-.15.06-.29.13-.44.2,0,0,0,0-.01,0-.34.17-.68.35-1.01.55-.75.43-1.5.91-2.28,1.4-.14.09-.28.18-.43.26-.22.14-.44.27-.67.41-.22.13-.45.26-.68.39,0,0-.01.01-.02.01-.3.16-.6.33-.9.48-.04.02-.08.04-.12.06-.53.27-1.08.51-1.63.71-.11.04-.22.08-.33.11-.08.03-.15.05-.23.07-.37.12-.75.21-1.13.29,0,0-.02,0-.03,0-.01,0-.02,0-.03,0-.04.01-.09.02-.13.03-.04,0-.07.01-.11.02,0,0,0,0-.01,0-.06.01-.13.03-.19.04-.24.04-.48.07-.72.09h0c-.54.04-1.08.04-1.62-.01-.3-.03-.59-.07-.89-.13-.39-.08-.78-.18-1.16-.31-.1-.03-.19-.06-.28-.1-.28-.11-.56-.22-.83-.35-.09-.04-.18-.09-.27-.14-.26-.14-.52-.29-.76-.45-.49-.32-.95-.69-1.36-1.11-.14-.14-.27-.28-.39-.43-.06-.07-.12-.15-.18-.23-.18-.23-.34-.47-.48-.72-.1-.16-.19-.33-.27-.51,1.14.88,2.32,1.51,3.52,1.87.1.03.19.06.29.08.84.23,1.7.35,2.55.35.48,0,.95-.04,1.43-.1.24-.03.48-.08.71-.12.3-.07.6-.14.9-.23.18-.05.35-.11.53-.17.06-.02.12-.04.18-.07.09-.03.18-.07.28-.1.08-.03.17-.07.25-.1.03-.01.06-.03.1-.04.22-.09.44-.19.66-.3.22-.11.45-.22.67-.34.13-.07.26-.13.39-.2.17-.09.34-.18.5-.27.29-.16.59-.32.88-.49.56-.31,1.12-.62,1.7-.92.3-.15.6-.3.9-.44.64-.3,1.29-.56,1.98-.76.79-.25,1.68-.39,2.57-.39,1.09,0,2.19.22,3.1.73.11.05.22.12.33.19.2.13.39.28.57.45.08.07.15.14.22.22.07.07.14.15.2.23Z"></path>
      <path class="cls-3" d="m37.02,27.49c-.12.05-.25.1-.37.14-1.37.52-2.87,1.06-4.41,1.44-2.48.62-5.07.84-7.35-.11,1.52.97,3.13,1.46,4.8,1.46.99,0,2.01-.17,3.04-.51.71-.23,1.43-.54,2.15-.94h.02s.01-.02.01-.02c1.32-.66,2.57-1.52,3.98-1.98,0,0-.56.02-1.86.5Z"></path>
      <path class="cls-3" d="m28,34.3s-.04,0-.04,0c0,0,.01,0,.04,0t0,0Z"></path>
      <path class="cls-3" d="m28.03,34.3h-.02s0,0,0,0c.02,0,.03,0,.03,0Z"></path>
      <path class="cls-3" d="m32.53,35.32s-.07,0-.1,0c-.12,0-.24,0-.36,0,.12,0,.24,0,.36-.01.03,0,.07,0,.1,0Z"></path>
      <path class="cls-3" d="m32.43,35.32c-.12,0-.24.01-.36.01.12,0,.24,0,.36,0,.04,0,.07,0,.1,0-.03,0-.07,0-.1,0Zm-4.42-1.02s0,0,0,0h.02s0,0-.03,0Zm-.01,0s-.04,0-.04,0c0,0,.02,0,.04,0t0,0Zm.01,0h0"></path>
      <path class="cls-3" d="m27.96,34.29s.01,0,.04,0t0,0s-.04,0-.04,0Zm15.17-4.26c-1.15.94-2.23,1.94-3.49,2.77-.14.09-.29.18-.43.26-.24.15-.5.29-.75.42-.44.24-.89.46-1.34.66-1.31.58-2.67.99-4.05,1.13-.1.01-.21.02-.31.03-.07,0-.14.01-.21.01-.03,0-.07,0-.1,0-.12,0-.24,0-.36,0-1.38,0-2.74-.31-4.05-1.03t0,0s.03,0,.03,0h-.02c.19.05.39.1.58.14.72.16,1.45.24,2.19.24.56,0,1.11-.05,1.64-.14.17-.03.34-.07.51-.11,1.47-.28,2.87-.87,4.17-1.57.46-.24.91-.5,1.34-.77.49-.29.96-.59,1.43-.88.97-.61,1.89-1.18,2.78-1.63.22-.11.45-.21.67-.29.45-.19.9-.32,1.33-.42-.54.36-1.04.75-1.53,1.14Z"></path>
      <path class="cls-3" d="m44.66,28.89c-.54.36-1.04.75-1.53,1.14-1.15.94-2.23,1.94-3.49,2.77-.14.09-.29.18-.43.26-.24.15-.5.29-.75.42-.44.24-.89.46-1.34.66-1.31.58-2.67.99-4.05,1.13-.1.01-.21.02-.31.03-.07,0-.14.01-.21.01-.03,0-.07,0-.1,0-.12,0-.24.01-.36.01-1.38,0-2.74-.31-4.05-1.03.19.05.39.1.58.14.72.16,1.45.24,2.19.24.56,0,1.11-.05,1.64-.14.17-.03.34-.07.51-.11,1.47-.28,2.87-.87,4.17-1.57.46-.24.91-.5,1.34-.77.49-.29.96-.59,1.43-.88.97-.61,1.89-1.18,2.78-1.63.22-.11.45-.21.67-.29.45-.19.9-.32,1.33-.42Z"></path>
    </mask>
    <linearGradient id="linear-gradient" x1="-2102.02" y1="-5707.81" x2="-2052.02" y2="-5657.81" gradientTransform="translate(2102.02 5707.81)" gradientUnits="userSpaceOnUse">
      <stop offset="0" stop-color="#6dcad2"></stop>
      <stop offset=".07" stop-color="#67c8d1"></stop>
      <stop offset=".16" stop-color="#56c5ce"></stop>
      <stop offset=".27" stop-color="#3ac0ca"></stop>
      <stop offset=".27" stop-color="#39c0ca"></stop>
      <stop offset=".32" stop-color="#3bbbc5"></stop>
      <stop offset=".52" stop-color="#3cbac4"></stop>
      <stop offset=".57" stop-color="#47bdc7"></stop>
      <stop offset=".67" stop-color="#64c7cf"></stop>
      <stop offset=".67" stop-color="#65c8d0"></stop>
      <stop offset=".74" stop-color="#4dafb8"></stop>
      <stop offset=".84" stop-color="#3495a0"></stop>
      <stop offset=".93" stop-color="#258591"></stop>
      <stop offset="1" stop-color="#20808c"></stop>
    </linearGradient>
  </defs>
  <g class="cls-1">
    <rect class="cls-2" width="50" height="50" transform="translate(50 50) rotate(180)"></rect>
  </g>
</svg>
