<?xml version="1.0" encoding="UTF-8"?>
<svg xmlns="http://www.w3.org/2000/svg" xmlns:xlink="http://www.w3.org/1999/xlink" id="Layer_1" viewBox="0 0 50 50">
  <defs>
    <style>.cls-1{mask:url(#mask);}.cls-2{fill:url(#linear-gradient);}.cls-2,.cls-3{stroke-width:0px;}.cls-3{fill:#fff;}</style>
    <mask id="mask" x="10.9" y="11.74" width="26.58" height="26.58" maskUnits="userSpaceOnUse">
      <path class="cls-3" d="m35.39,35.18c-.17.03-.78.07-.92.07-.2,0-.34-.03-.41-.37-.1-.44-.14-1.67-.14-3.47v-2.97s-.09.07-.13.11c-.44.37-.89.76-1.4,1.09h0s0,0,0,0c-.32.2-.63.37-.94.53v6.51c1.46-.27,2.89-.68,4.02-1.05.14-.17.1-.34-.07-.44Zm-7.15-4.11v5.13c-.68.24-1.64.34-2.35.34-5.38,0-7.46-4.46-7.46-11.34,0-4.73,1.57-8.58,3.92-10.49-3.41,1.12-7.05,4.19-7.05,10.93s3.03,11.75,9.91,11.75c1.36,0,3.44-.24,5.52-.61v-6.28c-.86.36-1.69.55-2.48.57Zm0-.58h0s.04,0,.05,0c-.02,0-.04,0-.05,0Zm4.83-17.78c-.1-.14-.34-.14-.44,0l-.71,1.16h-.2c-1.43-.78-3.95-1.26-5.96-1.26-7.53,0-13.93,4.97-13.93,12.97,0,5.42,2.25,9.26,7.05,10.93-2.62-1.8-4.32-5.17-4.32-10.86,0-10.01,7.46-12.36,11.37-12.22,2.86.03,4.36,1.74,7.25,6.88.17.17.41.1.48-.14l-.58-7.46Z"></path>
      <path class="cls-3" d="m28.31,29.47h-.03s-.02,0-.03,0c.02,0,.04,0,.06,0Z"></path>
      <path class="cls-3" d="m28.4,29.45h-.02s-.01,0-.01,0c0,0,0,0,.02,0,0,0,0,0,.01,0Z"></path>
      <path class="cls-3" d="m29.87,27.46c-.07.03-.14.07-.21.1h0c.07-.04.13-.07.2-.1Z"></path>
      <path class="cls-3" d="m34.72,26.48c-.05,0-.1.02-.15.04.02,0,.04,0,.05-.01l.1-.02Z"></path>
      <path class="cls-3" d="m34.18,26.61c.06-.02.12-.04.18-.05-.01,0-.03,0-.04.01-.05.01-.1.03-.15.04Z"></path>
      <path class="cls-3" d="m34.45,26.54s-.05.01-.08.02c.01,0,.03,0,.04-.01.01,0,.03,0,.04,0Z"></path>
      <path class="cls-3" d="m28.25,29.48s0,0,0,0c-.03,0-.07.02-.1.02.04,0,.09-.02.14-.03h.03s-.04,0-.06,0Zm-.11.02c-.13.02-.25.04-.38.05.13,0,.26-.03.38-.05Zm-1.25.04c.16.02.32.03.47.03.13,0,.26,0,.39-.02-.29.02-.57.02-.86,0Zm-.47-.07c-.21-.04-.41-.1-.62-.16.2.07.41.12.62.16Zm-.77-.22c-.15-.06-.3-.12-.44-.19.14.07.29.13.44.19Zm-.58-.26c-.14-.07-.28-.15-.41-.24.13.09.27.17.41.24Zm9.1-2.39s.1-.03.15-.04c.01,0,.03,0,.04-.01-.06.02-.12.03-.18.05Z"></path>
      <path class="cls-3" d="m36.76,26.68c-.43-.2-.88-.28-1.32-.28-.24,0-.48.03-.72.07-.03,0-.07.01-.1.02-.06.01-.11.03-.17.04-.01,0-.03,0-.04,0-.02,0-.03.01-.05.02-.06.01-.12.03-.18.05,0,0-.01,0-.02,0h0c-.08.03-.17.06-.25.09-.02,0-.03.01-.05.02-.04.02-.09.03-.13.05-.02,0-.04.02-.07.03-.08.03-.16.07-.24.11,0,0,0,0,0,0-.18.09-.36.19-.54.29-.4.23-.8.49-1.21.74-.08.05-.15.09-.23.14-.12.07-.23.14-.35.22-.12.07-.24.14-.36.21,0,0,0,0-.01,0-.16.09-.32.17-.48.26-.02.01-.04.02-.07.03-.28.14-.57.27-.87.38-.06.02-.12.04-.17.06-.04.01-.08.03-.12.04-.2.06-.4.11-.6.15,0,0,0,0-.01,0,0,0,0,0-.02,0-.02,0-.05,0-.07.02-.02,0-.04,0-.06,0,0,0,0,0,0,0-.03,0-.07.02-.1.02-.13.02-.25.04-.38.05h0c-.29.02-.57.02-.86,0-.16-.02-.31-.04-.47-.07-.21-.04-.41-.1-.62-.16-.05-.02-.1-.03-.15-.05-.15-.06-.3-.12-.44-.19-.05-.02-.1-.05-.14-.07-.14-.07-.28-.15-.41-.24-.26-.17-.51-.37-.72-.59-.07-.07-.14-.15-.21-.23-.03-.04-.07-.08-.1-.12-.09-.12-.18-.25-.26-.38-.05-.09-.1-.18-.14-.27.61.47,1.23.8,1.87,1,.05.02.1.03.15.04.45.12.9.18,1.36.18.25,0,.51-.02.76-.05.13-.02.25-.04.38-.07.16-.03.32-.07.48-.12.1-.03.19-.06.28-.09.03-.01.06-.02.1-.03.05-.02.1-.03.15-.05.04-.02.09-.03.13-.05.02,0,.03-.01.05-.02.12-.05.24-.1.35-.16.12-.06.24-.12.36-.18.07-.03.14-.07.21-.1.09-.05.18-.09.27-.14.16-.08.31-.17.47-.26.3-.17.6-.33.9-.49.16-.08.32-.16.48-.24.34-.16.69-.3,1.05-.4.42-.13.9-.21,1.37-.21.58,0,1.16.12,1.65.39.06.03.12.06.17.1.11.07.21.15.3.24.04.04.08.08.12.12.04.04.07.08.11.12Z"></path>
      <path class="cls-3" d="m30.68,26.32c-.07.02-.13.05-.2.08-.73.28-1.52.56-2.34.77-1.32.33-2.7.45-3.91-.06.81.51,1.66.78,2.55.78.53,0,1.07-.09,1.61-.27.38-.12.76-.29,1.14-.5h0s0,0,0,0c.7-.35,1.37-.81,2.11-1.05,0,0-.3,0-.99.27Z"></path>
      <path class="cls-3" d="m25.89,29.94s-.02,0-.02,0c0,0,0,0,.02,0t0,0Z"></path>
      <path class="cls-3" d="m25.9,29.95h0s0,0,0,0c0,0,.01,0,.01,0Z"></path>
      <path class="cls-3" d="m28.3,30.49s-.03,0-.05,0c-.06,0-.13,0-.19,0,.06,0,.13,0,.19,0,.02,0,.04,0,.05,0Z"></path>
      <path class="cls-3" d="m28.24,30.49c-.06,0-.13,0-.19,0,.06,0,.13,0,.19,0,.02,0,.04,0,.05,0-.02,0-.04,0-.05,0Zm-2.35-.54s0,0,0,0h0s0,0-.01,0Zm0,0s-.02,0-.02,0c0,0,.01,0,.02,0t0,0Zm0,0h0"></path>
      <path class="cls-3" d="m25.86,29.94s0,0,.02,0t0,0s-.02,0-.02,0Zm8.06-2.26c-.61.5-1.19,1.03-1.86,1.47-.08.05-.15.09-.23.14-.13.08-.26.15-.4.23-.23.13-.47.24-.71.35-.7.31-1.42.53-2.15.6-.05,0-.11,0-.17.01-.04,0-.07,0-.11,0-.02,0-.03,0-.05,0-.06,0-.13,0-.19,0-.73,0-1.46-.16-2.15-.55t0,0s.01,0,.01,0h0c.1.03.21.05.31.08.38.09.77.13,1.17.13.3,0,.59-.03.87-.08.09-.02.18-.03.27-.06.78-.15,1.52-.46,2.21-.83.24-.13.48-.27.71-.41.26-.16.51-.31.76-.47.52-.32,1-.63,1.48-.87.12-.06.24-.11.36-.16.24-.1.48-.17.71-.22-.29.19-.55.4-.81.61Z"></path>
      <path class="cls-3" d="m34.74,27.07c-.29.19-.55.4-.81.61-.61.5-1.19,1.03-1.86,1.47-.08.05-.15.09-.23.14-.13.08-.26.15-.4.23-.23.13-.47.24-.71.35-.7.31-1.42.53-2.15.6-.05,0-.11,0-.17.01-.04,0-.07,0-.11,0-.02,0-.04,0-.05,0-.06,0-.13,0-.19,0-.73,0-1.46-.16-2.15-.55.1.03.21.05.31.08.38.09.77.13,1.17.13.3,0,.59-.03.87-.08.09-.02.18-.03.27-.06.78-.15,1.52-.46,2.21-.83.24-.13.48-.27.71-.41.26-.16.51-.31.76-.47.52-.32,1-.63,1.48-.87.12-.06.24-.11.36-.16.24-.1.48-.17.71-.22Z"></path>
    </mask>
    <linearGradient id="linear-gradient" x1="-3234.25" y1="-6894.32" x2="-3207.67" y2="-6867.74" gradientTransform="translate(3245.14 6906.06)" gradientUnits="userSpaceOnUse">
      <stop offset="0" stop-color="#6dcad2"></stop>
      <stop offset=".07" stop-color="#67c8d1"></stop>
      <stop offset=".16" stop-color="#56c5ce"></stop>
      <stop offset=".27" stop-color="#3ac0ca"></stop>
      <stop offset=".27" stop-color="#39c0ca"></stop>
      <stop offset=".32" stop-color="#3bbbc5"></stop>
      <stop offset=".52" stop-color="#3cbac4"></stop>
      <stop offset=".57" stop-color="#47bdc7"></stop>
      <stop offset=".67" stop-color="#64c7cf"></stop>
      <stop offset=".67" stop-color="#65c8d0"></stop>
      <stop offset=".74" stop-color="#4dafb8"></stop>
      <stop offset=".84" stop-color="#3495a0"></stop>
      <stop offset=".93" stop-color="#258591"></stop>
      <stop offset="1" stop-color="#20808c"></stop>
    </linearGradient>
  </defs>
  <g class="cls-1">
    <rect class="cls-2" x="10.9" y="11.74" width="26.58" height="26.58" transform="translate(48.37 50.05) rotate(180)"></rect>
  </g>
</svg>
