<?xml version="1.0" encoding="UTF-8"?>
<svg xmlns="http://www.w3.org/2000/svg" id="Layer_1" viewBox="0 0 50 18.08">
  <defs>
    <style>.cls-1{fill:#3bbdc8;stroke-width:0px;}</style>
  </defs>
  <g id="Line-Arrow-22">
    <path id="Path" class="cls-1" d="m41.7,10.39c-3.55.02-7.1.07-10.64.05-9.44-.07-18.88.42-28.26,1.49-.61.07-1.28.18-1.84,0-.41-.13-.91-.68-.95-1.08-.04-.39.37-.97.75-1.22.41-.28,1-.34,1.53-.41,9.44-1.31,18.97-1.88,28.5-1.68,3.86.11,7.72-.01,11.56-.38-.4-.37-.83-.71-1.28-1.01-2.17-1.23-4.39-2.36-6.52-3.66-.47-.29-.94-1.2-.82-1.67.25-.96,1.14-.96,1.97-.59.41.18.82.36,1.2.57,3.82,2.11,7.66,4.19,11.44,6.36,2.19,1.26,2.2,2.5.06,3.64-4.4,2.35-8.84,4.62-13.27,6.91-.31.16-.67.39-.99.36-.49-.05-1.27-.19-1.36-.47-.15-.57-.06-1.17.25-1.67.33-.47,1-.71,1.54-1.01,2.4-1.33,4.81-2.63,7.22-3.95l-.1-.58Z"></path>
  </g>
</svg>
