<?xml version="1.0" encoding="UTF-8"?>
<svg xmlns="http://www.w3.org/2000/svg" id="Layer_1" viewBox="0 0 50 16.29">
  <defs>
    <style>.cls-1{fill:#3bbdc8;stroke-width:0px;}</style>
  </defs>
  <g id="Line-Arrow-18">
    <path id="Shape" class="cls-1" d="m25.9,4.9c1.5,2.79,1.51,5.57-.44,8.1-1.98,2.57-4.7,3.75-7.96,3.13-2.5-.47-3.71-2.6-3.05-5.07.41-1.56,1.24-2.88,2.34-4.04,1.28-1.35,2.8-2.38,4.45-3.23.29-.15.56-.35.88-.55-1.17-.91-2.57-1.47-4.04-1.63-3.41-.38-6.49.61-9.38,2.31-3,1.77-5.29,4.27-7.16,7.19-.15.23-.24.52-.43.67-.22.17-.53.22-.8.32-.11-.31-.33-.63-.3-.92.04-.33.26-.67.48-.95,1.31-1.65,2.54-3.38,3.99-4.89C6.94,2.79,10,1.21,13.44.4c3.29-.77,6.45-.5,9.31,1.39.9.59,1.63.76,2.7.46,6.69-1.87,12.89-.84,18.49,3.37,1.08.81,2.17,1.6,3.26,2.39.28.2.58.39,1.1.73-.16-.71-.25-1.18-.38-1.64-.15-.52-.4-1.01-.47-1.54-.04-.29.08-.76.3-.9.43-.28.76.05.93.46.7,1.7,1.15,3.5,1.32,5.34.06.58-.18.94-.82.96-1.3.03-2.6.1-3.9.13-.22,0-.5.04-.66-.07-.26-.19-.43-.48-.64-.73.23-.18.43-.47.68-.51.53-.09,1.07-.03,1.61-.06.33-.02.65-.09,1.29-.19-3.35-2.39-6.32-4.79-9.96-6.13-4.05-1.49-8.11-1.14-12.33,0,.28.46.47.76.64,1.07Zm-2.34-.51c-2.4.95-4.59,2.18-6.15,4.22-.7.93-1.22,1.97-1.55,3.08-.42,1.44.25,2.4,1.67,2.9,1.06.38,2.12.3,3.16-.05,2.57-.87,4.39-2.44,4.7-5.29.2-1.87-.38-3.52-1.83-4.87h0Z"></path>
  </g>
</svg>
