<?xml version="1.0" encoding="UTF-8"?>
<svg xmlns="http://www.w3.org/2000/svg" id="Layer_1" viewBox="0 0 50 4.5">
  <defs>
    <style>.cls-1{fill:#3bbdc8;}.cls-1,.cls-2{stroke-width:0px;}.cls-2{fill:#c2e6ef;}</style>
  </defs>
  <path class="cls-2" d="m45,3.08c-1.38,0-2.09-.7-2.72-1.32-.62-.61-1.16-1.14-2.29-1.14s-1.66.53-2.28,1.14c-.63.62-1.34,1.32-2.72,1.32s-2.09-.7-2.72-1.32c-.62-.61-1.16-1.14-2.28-1.14s-1.66.53-2.28,1.14c-.63.62-1.34,1.32-2.72,1.32s-2.09-.7-2.72-1.32c-.62-.61-1.16-1.14-2.28-1.14s-1.66.53-2.28,1.14c-.63.62-1.34,1.32-2.72,1.32s-2.09-.7-2.72-1.32c-.62-.61-1.16-1.14-2.28-1.14s-1.66.53-2.28,1.14c-.63.62-1.34,1.32-2.72,1.32s-2.09-.7-2.72-1.32C1.66,1.15,1.12.62,0,.62v-.62c1.38,0,2.09.7,2.72,1.32.62.61,1.16,1.14,2.28,1.14s1.66-.53,2.28-1.14c.63-.62,1.34-1.32,2.72-1.32s2.09.7,2.72,1.32c.62.61,1.16,1.14,2.28,1.14s1.66-.53,2.28-1.14c.63-.62,1.34-1.32,2.72-1.32s2.09.7,2.72,1.32c.62.61,1.16,1.14,2.28,1.14s1.66-.53,2.28-1.14c.63-.62,1.34-1.32,2.72-1.32s2.09.7,2.72,1.32c.62.61,1.16,1.14,2.28,1.14s1.66-.53,2.28-1.14c.63-.62,1.34-1.32,2.72-1.32s2.09.7,2.72,1.32c.62.61,1.16,1.14,2.29,1.14s1.66-.53,2.28-1.14c.63-.62,1.34-1.32,2.72-1.32v.62c-1.12,0-1.66.53-2.29,1.14-.63.62-1.34,1.32-2.72,1.32Z"></path>
  <path class="cls-1" d="m45,4.5c-1.38,0-2.09-.7-2.72-1.32-.62-.61-1.16-1.14-2.29-1.14s-1.66.53-2.28,1.14c-.63.62-1.34,1.32-2.72,1.32s-2.09-.7-2.72-1.32c-.62-.61-1.16-1.14-2.28-1.14s-1.66.53-2.28,1.14c-.63.62-1.34,1.32-2.72,1.32s-2.09-.7-2.72-1.32c-.62-.61-1.16-1.14-2.28-1.14s-1.66.53-2.28,1.14c-.63.62-1.34,1.32-2.72,1.32s-2.09-.7-2.72-1.32c-.62-.61-1.16-1.14-2.28-1.14s-1.66.53-2.28,1.14c-.63.62-1.34,1.32-2.72,1.32s-2.09-.7-2.72-1.32c-.62-.61-1.16-1.14-2.28-1.14v-.62c1.38,0,2.09.7,2.72,1.32.62.61,1.16,1.14,2.28,1.14s1.66-.53,2.28-1.14c.63-.62,1.34-1.32,2.72-1.32s2.09.7,2.72,1.32c.62.61,1.16,1.14,2.28,1.14s1.66-.53,2.28-1.14c.63-.62,1.34-1.32,2.72-1.32s2.09.7,2.72,1.32c.62.61,1.16,1.14,2.28,1.14s1.66-.53,2.28-1.14c.63-.62,1.34-1.32,2.72-1.32s2.09.7,2.72,1.32c.62.61,1.16,1.14,2.28,1.14s1.66-.53,2.28-1.14c.63-.62,1.34-1.32,2.72-1.32s2.09.7,2.72,1.32c.62.61,1.16,1.14,2.29,1.14s1.66-.53,2.28-1.14c.63-.62,1.34-1.32,2.72-1.32v.62c-1.12,0-1.66.53-2.29,1.14-.63.62-1.34,1.32-2.72,1.32Z"></path>
</svg>
